<svg xmlns="http://www.w3.org/2000/svg" width="200" height="200" fill="none" viewBox="0 0 200 200">
<!-- SVG created with Arrow, by QuiverAI (https://quiver.ai) -->
  <path d="m186.7 90.14c-0.32-6.49-3.57-12.55-7.68-15.53l0.62-7.65c-0.39-5.8-2.83-8.25-7.42-9.84l-0.97-0.5-5.41-0.48-9.97-0.36c-3.52 0-5.72 0.69-7.8 2.62-1.21 1.13-3.29 0.78-5.37 0.31-2.08-0.46-3.45-0.23-3.45-0.23v-11.77l-6.35-12.09-8.52 2.59-9.21 8.61-0.23 4.59-12.78-2.67-9.21 14.38c-7.65 0.55-12.64 3.46-18.91 9.1-3.83 3.55-6.82 6.76-12.05 8.53-4.91 1.68-11.56 4.43-12.6 9.99-0.89 4.99-0.42 7.44 0.38 10.98 0.74 3.37 6.46 5.37 12.74 7.89l-9.82 7.49-1.75 7.96 3.54 4.36 10.2-4.99 6.5 0.99 9.6-6.02c2.91 4.59 9.1 7.04 13.02 11.32 2.29 2.59 2.06 4.04 1.17 5.49-1.09 1.85-5.29 1.77-11 5.52-4.75 3.13-7.89 5.06-10.94 7.43-3.06 2.37-3.06 5.2-3.06 9.79 0 5.16 3.91 8.29 12.12 10.29 5.64 1.37 8.93 1.84 14 5.68 3.92 3.03 12.13 3.27 12.13 3.27 11.16-0.4 19.68-2.31 27.49-8.29 6.2-4.74 8.49-7.95 17.38-11.94 5.64-2.6 9.25-3 12.39-12.04 3.05-8.73 4.5-14.05 11.75-21.77 7.57-8.17 10.02-18.94 9.47-33.01z" fill="url(#paint0_linear_526_146)" stroke="#000" stroke-miterlimit="10" stroke-width=".5"/>
  <path d="m189.7 94.34c3.53 4.82 4.64 16.91-0.71 25.8-2.75 4.59-7.66 8.67-8.87 9.22" stroke="#000" stroke-miterlimit="10" stroke-width=".25"/>
  <path d="m196.5 102.1c1.29 4.89-0.71 13.87-5.7 19.97" stroke="#000" stroke-miterlimit="10" stroke-width=".25"/>
  <path d="m174.8 135.2c-3.45 5.32-2.9 13.96-9.17 21.2-2.83 3.37-7.74 5.82-10.49 6.82" stroke="#000" stroke-miterlimit="10" stroke-width=".25"/>
  <path d="m133.9 178.1c-4.99 3.21-21.03 5.74-28.11 4.66-4.67-0.71-6.75-1.71-9.8-3.95" stroke="#000" stroke-miterlimit="10" stroke-width=".25"/>
  <path d="m149.8 175.1c-4.99 4.26-8.52 7.73-15.92 8.81-3.69 0.55-6.61 1.16-9.36 1.71" stroke="#000" stroke-miterlimit="10" stroke-width=".25"/>
  <path d="m65.31 158.1c-1.07 6.57 4.78 12.45 18.02 14.98" stroke="#000" stroke-miterlimit="10" stroke-width=".25"/>
  <path d="m49.41 90.61c-0.63 5.32 1.81 8.31 8.01 10.47 6.19 2.15 8.72 3.52 10.8 5.29l-4.3 2.24c-4.21-1.85-11.47-3.69-13.69-7.89-1.29-2.67-1.37-7.26-0.82-10.11z" fill="#A7714E" stroke="#000" stroke-miterlimit="10" stroke-width=".25"/>
  <path d="m179.1 66.12c-0.16 4.51-3.21 6.51-6.82 7.14-3.14 0.52-5.3 0.2-6.2 1.51l1.75 4.98-1.75 0.39-26.75-17.47-0.08-4.19c2.45 0 4.08 0.93 6.28 0.62 2.08-0.31 2.54-2.83 7.61-2.98l3.05-0.06 9.82 0.41 6.11 0.39c4.3 1.39 7.13 3.91 6.98 9.26z" fill="#78A86A" stroke="#000" stroke-miterlimit="10" stroke-width=".25"/>
  <path d="m92.99 63.19c-7.73 0.55-12.32 3.46-18.91 9.02-3.53 3.13-6.66 6.42-11.81 8.01-4.51 1.45-10.3 3.29-12.46 8.28-0.64 1.45-0.56 1.91-0.56 1.91 0.63 4.52 2.89 5.72 8.36 7.8 4.58 1.75 7.5 2.07 10.17 4.74 3.13 3.14 6.18 4.33 10.1 6.02 4.83 2.08 6.58 6.74 15.47 9.78 5.32 1.86 7.59 4.16 8.14 7.29s-2.82 8.37-7.57 9.82c-4.76 1.45-6.06 1.76-11.56 5.35-5.32 3.55-9.6 5.63-12.13 8.16s0 8.34 9.89 10.94c7.1 2.08 8.85 1.01 15.5 5 6.66 3.99 13.08 3.99 14.29 3.51 9.51-0.8 13.51-1.79 23.85-9.76 7-5.64 9.99-6.93 13.28-8 9.5-2.52 15.62-5.65 19.15-18.05 2.75-9.66 5.97-12.79 11.69-18.43 6.84-6.83 9.29-12.55 9.29-21.47 0-6.18-3.05-13.67-7.49-17.95l-0.08 3.99 2.08 5.56-2 5.55-2.91 3.28-3.45-1.37-3.3 0.39-1.37 4.26 3.3 2.9 0.97 2.23-0.97 2.53 0.97 2.16-2.45 2.08-3.29 1-2.75 2.08-3.92 1.37-2.37-0.55-2.53 1.93-2.99-0.99-1.45-3.92 2.08-3.83 2.91-1.33 1.45-2.29 3.3-0.99 3.21-2.52 3.53-0.91 1.08-4.74-0.96-3.52 0.39-10.36-2.53-3.91-26.34-13.04-0.63 0.16-2.34-0.16-4.3 3.53-2.2-3.53-13.73-10.28-13.41-4.1-0.56-0.08v0.08l-0.08-0.08-0.08 0.08v-0.08l-9.29 13.47 0.32 1.98z" fill="url(#paint1_linear_526_146)" stroke="#000" stroke-miterlimit="10" stroke-width=".25"/>
  <path d="m93.07 70.15c-2.91 0-3.95 3.13-3.95 5.5-1.9 0-3.9 0.16-3.9 3.18 0 1.39-1.45 2.68-0.48 4.07 0.88 1.36 3.33 0.81 5.18 0.28 1.85-0.56 2.09 0.08 3.92 0 1.82-0.08 4.19-2.52 4.19-5.91 0-3.41-0.89-7.12-4.96-7.12z" fill="#528250" stroke="#000" stroke-miterlimit="10" stroke-width=".25"/>
  <path d="m119.6 99.36c-2.91 2.91-3.38 5.52-2.83 8.81 0.63 3.71 9.15 8.78 10.12 13.77 0.96 4.98-1.87 10.3-4.78 12.83s-3.98 4.9-3.02 7.95c0.97 3.03 2.82 5.94 1.45 8.93s-9.89 7.13-11.34 11.58c-0.88 2.99 0.57 5.75 0.57 5.75 6.42 0 14.22-2.07 22.96-8.63 7-5.48 9-7.54 14.56-9.29 9.2-2.99 15.31-5.58 18.84-17.98 2.75-9.65 4.58-12.02 11.57-19.43 6.04-6.41 9.02-11.74 9.41-19.63l-1.37 6.7-4.52 7.89-8.81 1.67-4.66-3.04-4.91 0.47-4.44 0.9-3.45 1-4.51 0.55-1.15-0.55-2.08-0.48-10.26-5.63-10.34-6.2-7.01 2.06z" fill="#89BB75" stroke="#000" stroke-miterlimit="10" stroke-width=".25"/>
  <path d="m169 98.52c-2.27 0-2.9 1.45-3.45 2.91-1.85 0-4.52 0.56-5.49 2.5-1.74-0.47-5.03 0-6.56 2.99-1.53 3.13-2.08 6.12 1.45 7.58 2.08 0.83 3.61-1.09 4.58-1.57 1.36 0.99 4.8 0.52 6.56-2.01 2.83 0 4.28-1.45 5.25-2.9 2.08-0.08 2.47-1.53 2.39-2.98-0.08-1.46-1.53-2.09-1.53-2.09 0.97-2.08-0.2-4.43-3.2-4.43z" fill="#468455" stroke="#000" stroke-miterlimit="10" stroke-width=".25"/>
  <path d="m177.9 70.15c0 4.58 0.75 8.56 2.11 12.47" stroke="#000" stroke-miterlimit="10" stroke-width=".5"/>
  <path d="m172 80.14 0.39 6.97" stroke="#000" stroke-miterlimit="10" stroke-width=".5"/>
  <path d="m175.2 89.74c0.72-2.67 2.08-3.51 3.06-3.43 1.37 0.16 4.36 2.23 4.36 3.75 0 1.53-2.45 2.89-5.38 2.89-2.45 0-2.84-0.54-2.04-3.21z" fill="#996A53" stroke="#000" stroke-miterlimit="10" stroke-width=".5"/>
  <path d="m114.6 45.74 18.08-11.28 7.98 11.77-1.45 1.39v15.41l-3.22-0.48-4.58 7.33-2.53-3.76-4-27.32-9.97 7.55c-0.89 0.63-1.44 0-0.31-0.61z" fill="#9D423A" stroke="#000" stroke-miterlimit="10" stroke-width=".5"/>
  <path d="m124.5 37.96 6.35 14.2 9.05-5.93v15.97l-3.98 0.35-4.58 7.33-6.84-31.92z" fill="#D5A875" stroke="#000" stroke-miterlimit="10" stroke-width=".5"/>
  <path d="m155.3 52.52 2.75-19.26 12.7-0.23 2.75 24.09-0.63 9.92c-5.24 3.27-13.76 2.12-18.27-1.07l0.7-13.45z" fill="#C35944" stroke="#000" stroke-miterlimit="10" stroke-width=".5"/>
  <path d="m156.2 48.77c4 2.68 10.35 2.6 15.67-0.67l1.04 8.96c-4.91 3.55-13.12 2.79-17.12-0.42l0.41-7.87z" fill="#E8EAED" stroke="#000" stroke-miterlimit="10" stroke-width=".25"/>
  <path d="m157.8 33.58c3.13 2.53 9.33 2.53 12.86 0l0.55 5.73c-2.53 2.91-10.51 2.44-12.59-0.09l-0.82-5.64z" fill="#E8EAED" stroke="#000" stroke-miterlimit="10" stroke-width=".25"/>
  <path d="m156.2 27.64v3.47c0 3.27 4.44 4.64 8.81 4.64s7.58-2.02 7.58-4.64v-3.47h-16.39z" fill="#B8C1C6" stroke="#000" stroke-miterlimit="10" stroke-width=".5"/>
  <path d="m164.6 24.11c-4.75 0-8.4 1.65-8.4 3.73s3.65 3.74 8.4 3.74 8.4-1.66 8.4-3.74-3.65-3.73-8.4-3.73z" fill="#E8EAED" stroke="#000" stroke-miterlimit="10" stroke-width=".5"/>
  <path d="m158.8 19.04v8.17c0 2 2.61 3.3 6.27 3.3 3.45 0 5.98-1.45 5.98-3.3v-8.17h-12.25z" fill="#F6F191" stroke="#000" stroke-miterlimit="10" stroke-width=".5"/>
  <path d="m164.6 13-6.57 6.04c-0.63 0.9 0.56 2.67 5.07 2.67h3.53c2.36 0 4.11-1.61 4.11-2.67l-6.14-6.04z" fill="#B34634" stroke="#000" stroke-miterlimit="10" stroke-width=".5"/>
  <path d="m168.4 44.66h0.45c0.55 0 0.86 0.63 0.86 1.69v0.71c0 0.76-0.46 1.39-1.01 1.39h-0.3c-0.55 0-0.8-0.63-0.8-1.62v-0.72c0-0.82 0.31-1.45 0.8-1.45z" fill="#994A31" stroke="#000" stroke-miterlimit="10" stroke-width=".5"/>
  <path d="m169.5 63.11 0.42-0.44c0.82-0.83 2.27-0.39 2.27 0.44v3.7l-1.05 0.83-1.64 0.32v-4.85z" fill="#65362F" stroke="#000" stroke-miterlimit="10" stroke-width=".5"/>
  <path d="m92.67 61.21 14.58 7.4 12.76-7.4 14.5 17.86v2.08l-3.3 1.47-9.5-18.88-14.07 6.41-13.92-7.04-1.05-1.9z" fill="#7A3026" stroke="#000" stroke-miterlimit="10" stroke-width=".5"/>
  <path d="m107.2 70.04 12.76-7.37 13.83 15.96v1.99l-3.29 1.45-9.91-18.01-13.39 7.48v19.07l22.98 11.42 5.56 6.14-5.56-6.42-12.08-5.7-10.9-6.14v-19.87z" fill="#B7835F" stroke="#000" stroke-miterlimit="10" stroke-width=".5"/>
  <path d="m136.7 62.67 31.22 16.56-1.61 0.91v18.74l-17.16 11.28-17.9-9.92v-19.09l3.3-1.52-4.59-8.09 6.74-8.87z" fill="#B35944" stroke="#000" stroke-miterlimit="10" stroke-width=".5"/>
  <path d="m132.3 68.45 24.72 8.66" stroke="#89392A" stroke-miterlimit="10" stroke-width=".25"/>
  <path d="m133.8 69.32 19.91 9.59" stroke="#89392A" stroke-miterlimit="10" stroke-width=".25"/>
  <path d="m135.3 75.81 15.4 7.9" stroke="#89392A" stroke-miterlimit="10" stroke-width=".25"/>
  <path d="m157.8 74.73-7.66 14.09" stroke="#89392A" stroke-miterlimit="10" stroke-width=".25"/>
  <path d="m119.5 47.98c2-2.36 5.61-1.83 7.45 2.16l1.04 10.63-7.94-4.06c-1.53-0.76-2.08-6.82-0.55-8.73z" fill="#7A6839" stroke="#000" stroke-miterlimit="10" stroke-width=".5"/>
  <path d="m121.1 49.09c1.21-1.67 3.74-0.83 4.63 1.62l0.97 7.69-5.99-2.99c-0.71-0.4-0.95-4.62 0.39-6.32z" fill="#D1B146" stroke="#000" stroke-miterlimit="10" stroke-width=".5"/>
  <path d="m113.8 82.78 8.36 4.13v11.69l-8.36-4.46v-11.36z" fill="#895941" stroke="#000" stroke-miterlimit="10" stroke-width=".5"/>
  <path d="m118.2 71.54c-2.91-0.32-4.12 2.36-4.12 4.19 0 2.29 1.29 4.02 3.74 4.02s3.9-1.77 3.9-3.7c0-1.6-1.36-4.19-3.52-4.51z" fill="#B8D1D6" stroke="#000" stroke-miterlimit="10" stroke-width=".25"/>
  <path d="m95.97 68.14 3.84 1.74v4.57l-3.84-1.84v-4.47z" fill="#B8D1D6" stroke="#000" stroke-miterlimit="10" stroke-width=".25"/>
  <path d="m102.3 71.34 3.84 1.74v4.58l-3.84-1.85v-4.47z" fill="#B8D1D6" stroke="#000" stroke-miterlimit="10" stroke-width=".25"/>
  <path d="m95.97 75.81 3.84 1.74v4.56l-3.84-1.85v-4.45z" fill="#B8D1D6" stroke="#000" stroke-miterlimit="10" stroke-width=".25"/>
  <path d="m102.3 79.07 3.37 1.67v3.89l-3.37-1.77v-3.79z" fill="#B8D1D6" stroke="#000" stroke-miterlimit="10" stroke-width=".25"/>
  <path d="m134.8 86.91 3.84 1.75v4.57l-3.84-1.85v-4.47z" fill="#B8D1D6" stroke="#000" stroke-miterlimit="10" stroke-width=".25"/>
  <path d="m142.1 90.18 3.84 1.75v4.57l-3.84-1.85v-4.47z" fill="#B8D1D6" stroke="#000" stroke-miterlimit="10" stroke-width=".25"/>
  <path d="m134.8 94.57 3.84 1.75v4.56l-3.84-1.84v-4.47z" fill="#B8D1D6" stroke="#000" stroke-miterlimit="10" stroke-width=".25"/>
  <path d="m142.6 97.85 2.95 1.43v4.22l-2.95-1.47v-4.18z" fill="#B8D1D6" stroke="#000" stroke-miterlimit="10" stroke-width=".25"/>
  <path d="m153.7 90.61 3.84-2.07v4.57l-3.84 2.23v-4.73z" fill="#B8D1D6" stroke="#000" stroke-miterlimit="10" stroke-width=".25"/>
  <path d="m160.1 87.78 3.22-1.47v4.56l-3.22 1.85v-4.94z" fill="#B8D1D6" stroke="#000" stroke-miterlimit="10" stroke-width=".25"/>
  <path d="m153.7 98.76 3.37-1.98v4.57l-3.37 1.92v-4.51z" fill="#B8D1D6" stroke="#000" stroke-miterlimit="10" stroke-width=".25"/>
  <path d="m160.1 95.77 3.22-1.95v4.55l-3.22 1.91v-4.51z" fill="#B8D1D6" stroke="#000" stroke-miterlimit="10" stroke-width=".25"/>
  <path d="m95.66 88.98 0.47-0.91 8.21 2.84v3.03l-0.89 0.83-1.17-1.66-6.15-2.85-0.47-1.28z" fill="#997853" stroke="#000" stroke-miterlimit="10" stroke-width=".25"/>
  <path d="m129.1 106.8-0.85 1.37 0.47 1-0.47 0.68 0.85 0.83 9.59 4.38 2.08-1.3v-2.45l-8.88-5.06-2.79 0.55z" fill="#996142" stroke="#000" stroke-miterlimit="10" stroke-width=".5"/>
  <path d="m130.7 111.9-1.29 0.63v3.13l1.76 2.08h2.45l1.45-2.61v-1.46l-4.37-1.77z" fill="#996142" stroke="#000" stroke-miterlimit="10" stroke-width=".5"/>
  <path d="m143.8 113.2-1.47 2.91v1.68l2.53 0.99 1.85-1.53v-2.53l-1.21-1.52h-1.7z" fill="#825735" stroke="#000" stroke-miterlimit="10" stroke-width=".5"/>
  <path d="m148.1 118.8-0.88 1v2.92l1.45 0.99 1.61-0.75 0.39-2.77-1.45-1.39h-1.12z" fill="#825735" stroke="#000" stroke-miterlimit="10" stroke-width=".5"/>
  <path d="m130.2 127.1 3.45-0.83 7 3.98v3.98l-1.45 3.41-7.95-3.01-1.45-3.99 0.4-3.54z" fill="#FEFFFE" stroke="#000" stroke-miterlimit="10" stroke-width=".5"/>
  <path d="m130.6 131.6c0 2.53 6.42 7.51 14.94 7.51 3.92 0 5.37-1.45 5.37-1.45 0.55-3.45-3.87-4.99-9.2-7.09l-3.22 3.99-7.89-2.96z" fill="#E8EAED" stroke="#000" stroke-miterlimit="10" stroke-width=".5"/>
  <path d="m142.1 134.2 5.58 2.53" stroke="#000" stroke-miterlimit="10" stroke-width=".25"/>
  <path d="m139.6 135.2 5.96 2.49" stroke="#000" stroke-miterlimit="10" stroke-width=".25"/>
  <path d="m118.9 138.6 1.1-0.24 18.65 6.55 0.47 1.46v3.98l-3.12 1.66c-9.5-1.66-18.02-7.1-18.02-10.01 0-2.37-0.08-3.4 0.92-3.4z" fill="#97A3AE" stroke="#000" stroke-miterlimit="10" stroke-width=".5"/>
  <path d="m138.7 146.9v3.44l-2.65 1.21-1.46-3.54 4.11-1.11z" fill="#64849A" stroke="#000" stroke-miterlimit="10" stroke-width=".5"/>
  <path d="m131.2 141.1-0.98 1.45 0.98 3.91 2.45 0.5 1.45-2-0.96-3.39-2.94-0.47z" fill="#B7957E" stroke="#000" stroke-miterlimit="10" stroke-width=".5"/>
  <path d="m118.9 155.8-4.99 2.09-10.26-6.49-2.08-2.45v-0.83l0.46 0.52c1.07 2.28 9.43 8.22 12.43 8.22 2.45 0 6.95-1.85 7.94 0 0.72 1.39-2.4 5.79-5.39 6.35-2.45 0.47-12.71-5.48-14.98-8.2l-0.46-3.61v-2.76l0.46-0.52 5.57 0.83 9.97 5.55 1.33 1.3z" fill="#A54A41" stroke="#000" stroke-miterlimit="10" stroke-width=".5"/>
  <path d="m107.6 151.4 0.55-1.3 2.95-0.91 6.47 2.92v3.53l-2.91 2.05h-2l-5.06-3.39v-2.9z" fill="#E8EAED" stroke="#000" stroke-miterlimit="10" stroke-width=".5"/>
  <path d="m112.7 139.7v17.56" stroke="#000" stroke-miterlimit="10" stroke-width=".5"/>
  <path d="m6.23 122.8 5.95-4.08 1.53-0.16 13.57 8.25c3.05 2.29 3.6 5.4 1.84 8.09-2.08 2.77-5.37 2.3-8.9 0.77-7-3.02-13.99-7.01-13.99-10.46v-2.41z" fill="#994139" stroke="#000" stroke-miterlimit="10" stroke-width=".25"/>
  <path d="m7.11 122.2 5.8-2.77 7.25 3.64-8.21 5.19-4.84-3.1v-2.96z" fill="#824D39" stroke="#000" stroke-miterlimit="10" stroke-width=".25"/>
  <path d="m13.71 126.9 7.8-4.25 3.22 2.06-7 4.63-4.02-2.44z" fill="#824D39" stroke="#000" stroke-miterlimit="10" stroke-width=".25"/>
  <path d="m17.73 129 7-3.89" stroke="#000" stroke-miterlimit="10" stroke-width=".25"/>
  <path d="m29.94 133.3c-3.53 0-13.87-3.56-17.76-6.2" stroke="#000" stroke-miterlimit="10" stroke-width=".25"/>
  <path d="m46.31 103.2c-2.45-0.48-8.5 3.06-10.58 4.05l-4.36-2.91-3.92 2.91c-2.08 2.08-4.99 5.53-4.6 7.49 4.99 0.84 14.88-2.37 18.88-5.29 3.22-2.28 6.13-5.82 4.58-6.25z" fill="#CCC3BA" stroke="#000" stroke-miterlimit="10" stroke-width=".25"/>
  <path d="m28.32 105.7 5.57-3.02 5.96 3.97v1.45l-5.96 3.47-5.57-2.99v-2.88z" fill="#FEFFFE" stroke="#000" stroke-miterlimit="10" stroke-width=".25"/>
  <path d="m33.89 102.7v7.89" stroke="#000" stroke-miterlimit="10" stroke-width=".25"/>
  <path d="m40.81 114.1 3.91-2.51" stroke="#979797" stroke-miterlimit="10" stroke-width=".25"/>
  <path d="m9.96 133.8 5.56 2.45" stroke="#979797" stroke-miterlimit="10" stroke-width=".25"/>
  <path d="m3.82 125 0.89 3.13 0.55 0.47" stroke="#000" stroke-miterlimit="10" stroke-width=".25"/>
  <path d="m34.86 130.6c1.61 0.63 3.06 0 3.62-1.26" stroke="#979797" stroke-miterlimit="10" stroke-width=".25"/>
  <path d="m46.62 137.6c1.14 0.84 2.59 0.75 3.42 0" stroke="#979797" stroke-miterlimit="10" stroke-width=".25"/>
  <path d="m79.61 137.6 1.53-2.41" stroke="#979797" stroke-miterlimit="10" stroke-width=".25"/>
  <path d="m79.92 119.8c1.14 0.47 2.36 0.31 3.1-0.52" stroke="#979797" stroke-miterlimit="10" stroke-width=".25"/>
  <path d="m60.78 144c7 0.75 17.18-6.35 19.63-11.33v-3l-5.56-2.52-1.37 0.55c-6.35 3.46-14.37 9-16.55 12.98-0.82 2.07 1.34 3.06 3.85 3.32z" fill="#64849A" stroke="#000" stroke-miterlimit="10" stroke-width=".25"/>
  <path d="m57.24 140.1c4.99 0.54 16.24-3.44 22.68-8.42" stroke="#000" stroke-miterlimit="10" stroke-width=".25"/>
  <path d="m65.11 133.1 2-1.47 7.4 4.57-2.08 1.4-7.32-4.5z" fill="#496478" stroke="#000" stroke-miterlimit="10" stroke-width=".25"/>
  <path d="m36.04 120.1v9.11h1.37v-2.65l10.26 3.91v6.72h1.66v-6.72l30.79-18.39v7.07h2.32v-10.34h-2.32v0.67l-9.82-4.72v-4h-1.45v3.92l-19.36 11.93-12.08 4.84v-1.35h-1.37z" fill="#996142" stroke="#000" stroke-miterlimit="10" stroke-width=".5"/>
  <path d="m52.92 110.2v2.77h1.45v-2.77h-1.45z" fill="#996142" stroke="#000" stroke-miterlimit="10" stroke-width=".5"/>
  <path d="m64.64 118v10.1h2.08v-10.42l-2.08 0.32z" fill="#996142" stroke="#000" stroke-miterlimit="10" stroke-width=".5"/>
  <path d="m47.67 127.7v2.25h1.66v-2.25h-1.66z" fill="#996142" stroke="#000" stroke-miterlimit="10" stroke-width=".5"/>
  <path d="m37.41 123.5 11.1 4.63 16.6-9.47 13.57-7.4-9.5-5.54-16.57 9.91" stroke="#000" stroke-miterlimit="10" stroke-width=".25"/>
  <path d="m43.71 120.4 11.76 4.99" stroke="#000" stroke-miterlimit="10" stroke-width=".25"/>
  <path d="m49.41 117.2 10.26 4.98" stroke="#000" stroke-miterlimit="10" stroke-width=".25"/>
  <path d="m55.21 113.7 10.26 4.95" stroke="#000" stroke-miterlimit="10" stroke-width=".25"/>
  <path d="m56.11 83.26 5.07-8.53 9.97 5.22-4.99 8.16-10.05-4.85z" fill="#995139" stroke="#000" stroke-miterlimit="10" stroke-width=".5"/>
  <path d="m56.11 83.26v6.92l8.52-4.07v8.03h1.53v-6.67l4.99-4.21v5.32l1.37-0.55v-8.08" stroke="#000" stroke-miterlimit="10" stroke-width=".25"/>
  <path d="m58.64 88.82 3.3-1.47" stroke="#000" stroke-miterlimit="10" stroke-width=".5"/>
  <path d="m58.64 89.91 3.3-1.45" stroke="#000" stroke-miterlimit="10" stroke-width=".5"/>
  <path d="m71.54 88.31 1.22-0.84h2.91l1.45 0.84v3.98l-1.45 1.13h-2.91l-1.22-1.13v-3.98z" fill="#7A442A" stroke="#000" stroke-miterlimit="10" stroke-width=".5"/>
  <path d="m74.84 87.47v5.64" stroke="#000" stroke-miterlimit="10" stroke-width=".5"/>
  <defs>
    <linearGradient id="paint0_linear_526_146" x1="118" x2="118" y1="34.15" y2="177.4" gradientUnits="userSpaceOnUse">
      <stop stop-color="#F7E7B0" offset="0"/>
      <stop stop-color="#E8D8A7" offset="1"/>
    </linearGradient>
    <linearGradient id="paint1_linear_526_146" x1="118.2" x2="118.2" y1="47.49" y2="169.1" gradientUnits="userSpaceOnUse">
      <stop stop-color="#94CB7C" offset="0"/>
      <stop stop-color="#94CB7C" stop-opacity=".74" offset="1"/>
    </linearGradient>
  </defs>
</svg>