<svg xmlns="http://www.w3.org/2000/svg" width="250" height="250" fill="none" viewBox="0 0 250 250">
<!-- SVG created with Arrow, by QuiverAI (https://quiver.ai) -->
  <path d="m7.44 164c3.55-4.12 7.47-9.19 9.57-13.3 4.17-8.01 11.1-11.75 20.07-14.88 11.73-4.15 32.91-10.63 41.83-15.74 7.2-4.17 9.52-8.8 14.38-12.83 7.07-5.12 15.73-7.84 26.49-10.55 8.98-1.09 31.25 0.83 46.28 7.56 7.05 3.7 13.86 4.71 18.63 10.47 6.08 7.34 7.14 14.73 11.37 20.36 5.15 6.79 11.06 7.42 20.35 11.19 6.8 2.88 11.11 8.59 15.44 10.51 5.9 2.59 7.96 3.89 10.14 7.21h-234.6z" fill="#96CC83" stroke="#060606" stroke-miterlimit="10" stroke-width=".3"/>
  <path d="m3.21 164c3.87-3.89 8.02-9.09 9.43-12.71" stroke="#060606" stroke-miterlimit="10" stroke-width=".3"/>
  <path d="m11.51 147.4c2.45-3.22 3.76-5.19 7.71-7.49" stroke="#060606" stroke-miterlimit="10" stroke-width=".15"/>
  <path d="m20.09 138.8c7.68-4.1 13.2-4.44 24.59-11.01" stroke="#060606" stroke-miterlimit="10" stroke-width=".15"/>
  <path d="m65.71 120.5c8.9-2.71 16.12-8.3 21.27-12.86" stroke="#060606" stroke-miterlimit="10" stroke-width=".15"/>
  <path d="m193.7 123.9c3.21 4.92 4.23 9.33 11.91 14.14" stroke="#060606" stroke-miterlimit="10" stroke-width=".15"/>
  <path d="m204.7 131.9c4.99 5.3 10.06 10.1 19.16 13.99" stroke="#060606" stroke-miterlimit="10" stroke-width=".15"/>
  <path d="m230.7 148c7.07 1.68 13.09 6.6 17.02 13.18" stroke="#060606" stroke-miterlimit="10" stroke-width=".3"/>
  <path d="m82.31 163.9c4.77-2.66 9.82-4.75 10.2-8.23l-1.14-1.82 5.9-3.75 3.92-0.96c4.97 0.8 9.63-2.69 18.42-11.45l7.4 5.2-4.17 2.25c-7.02 4.75-13.38 11-18.78 18.76h-21.75z" fill="#E8D7A8" stroke="#060606" stroke-miterlimit="10" stroke-width=".3"/>
  <path d="m121.9 112.1 0.27 3.8 2.53-0.2-0.07-3.8-2.73 0.2z" fill="#604434" stroke="#060606" stroke-miterlimit="10" stroke-width=".3"/>
  <path d="m120.8 91.65c1.56-2.81 3.12-3.22 4.29-2.84 2.11 0.72 2.8 2.91 3.79 4.69 1.07 2.09 0.31 3.71-0.21 4.92-0.14 1.35 0.62 1.65 0.59 3.85-0.04 1.82-0.97 2.99-1.47 3.85-0.45 1.13 0.1 2.07-0.69 3.31-1.21 1.68-2.73 2.35-5.21 2.18-3.25-0.23-5.2-3.15-5.58-6-0.31-1.89 0.28-3.44 1.11-4.75 0.62-0.99 0.48-2.37 0.92-4.16 0.48-1.65 1.41-3.07 2.46-5.05z" fill="#6BA35B" stroke="#060606" stroke-miterlimit="10" stroke-width=".5"/>
  <path d="m120.7 103c1.21 0.51 2.31 0.1 3.41-0.27" stroke="#3A663D" stroke-miterlimit="10" stroke-width=".5"/>
  <path d="m128.5 95.81 35.49 14.83-16 6.08-19.8-10.4 0.31-10.51z" fill="#34628A" stroke="#060606" stroke-miterlimit="10" stroke-width=".5"/>
  <path d="m128.3 95.81 19.49 6.29 16.17 8.54-16.17-7.02-19.49-7.81z" fill="#0B344C" stroke="#060606" stroke-miterlimit="10" stroke-width=".3"/>
  <path d="m128.3 95.81-0.14 13.22 19.49 9.24 0.14-14.65-19.49-7.81z" fill="#F0D0A6" stroke="#060606" stroke-miterlimit="10" stroke-width=".5"/>
  <path d="m131 102.9 13.63 6.29v4.42l-13.63-6.96v-3.75z" fill="#90B8CB" stroke="#060606" stroke-miterlimit="10" stroke-width=".3"/>
  <path d="m137.9 106.1v4.02" stroke="#060606" stroke-miterlimit="10" stroke-width=".3"/>
  <path d="m147.7 118.3 11.11-4.35 7.28 6.16-9.65 7.02-8.74-8.83z" fill="#37709E" stroke="#060606" stroke-miterlimit="10" stroke-width=".5"/>
  <path d="m147.7 118.3 8.74 6.79 9.31-5.46-8.36-5.88-9.69 4.55z" fill="#37709E" stroke="#060606" stroke-miterlimit="10" stroke-width=".5"/>
  <path d="m147.7 118.3 8.46 7.02v16.12l-8.46-4.1v-19.04z" fill="#D68A6E" stroke="#060606" stroke-miterlimit="10" stroke-width=".3"/>
  <path d="m156.1 125.3 10.86-6.23v19.65l-10.86 2.7v-16.12z" fill="#E5A380" stroke="#060606" stroke-miterlimit="10" stroke-width=".3"/>
  <path d="m167 133.9 1.42 0.3 1.35 0.1v5.32l-2.77-0.41v-5.31z" fill="#604434" stroke="#060606" stroke-miterlimit="10" stroke-width=".3"/>
  <path d="m166.4 121.1c0.92-1.89 2.51-2.03 3.75-1.9 1.66 0.2 2.62 0.95 3.55 2.44 0.65 1.01 0.48 2.32 1.13 3.21 0.93 1.31 0.59 2.8-0.13 4.32-0.65 1.38-0.83 2.94-2.45 4.08s-3.54 1.41-5.4 0.7c-2.12-0.83-3.29-2.65-3.25-4.85 0.03-1.52 0.61-2.7 1.37-3.84 0.65-0.96 0.62-2.61 1.43-4.16z" fill="#51904C" stroke="#060606" stroke-miterlimit="10" stroke-width=".5"/>
  <path d="m167.7 126.8c1.27 0.1 2-0.07 2.89-0.99" stroke="#3A663D" stroke-miterlimit="10" stroke-width=".5"/>
  <path d="m116.6 125c-1.99-0.27-3.34 0.83-3.99 2.73-0.41 1.14-0.55 2.21-1.1 2.9-0.61 0.82 0.21 2.34 1.59 2.14 1.21-0.17 2-0.34 3.2 0.17 1.42 0.65 2.87-0.65 2.91-2.1 0.07-1.56-0.55-2.61-0.89-3.51-0.44-1.2-0.72-2.19-1.72-2.33z" fill="#6BA35B" stroke="#060606" stroke-miterlimit="10" stroke-width=".3"/>
  <path d="m117.3 120.8 11.7-11.79 18.29 9.24-13.63 14.65-17.02-9.23 0.66-2.87z" fill="#37709E" stroke="#060606" stroke-miterlimit="10" stroke-width=".5"/>
  <path d="m117.8 123.7 12.35-14.66" stroke="#060606" stroke-miterlimit="10" stroke-width=".3"/>
  <path d="m121.9 125.6 11.72-15.65" stroke="#060606" stroke-miterlimit="10" stroke-width=".3"/>
  <path d="m126.1 127.9 10.57-16.61" stroke="#060606" stroke-miterlimit="10" stroke-width=".3"/>
  <path d="m130.2 130.3 10.03-17.68" stroke="#060606" stroke-miterlimit="10" stroke-width=".3"/>
  <path d="m135.2 129.9 11.71-12.48" stroke="#060606" stroke-miterlimit="10" stroke-width=".3"/>
  <path d="m137.9 131.9 7.13-3.55v5.05l-7.13 3.61v-5.11z" fill="#648DB2" stroke="#060606" stroke-miterlimit="10" stroke-width=".3"/>
  <path d="m116.6 123.7 18.74 10.83v9.1l-18.74-11.68v-8.25z" fill="#E5B785" stroke="#060606" stroke-miterlimit="10" stroke-width=".3"/>
  <path d="m135.4 134.5 12.32-6.14v8.66l-12.32 6.58v-9.1z" fill="#E5A380" stroke="#060606" stroke-miterlimit="10" stroke-width=".3"/>
  <path d="m120.2 127.2 3.69 2.29v7.68l-3.69-2.49v-7.48z" fill="#825646" stroke="#060606" stroke-miterlimit="10" stroke-width=".3"/>
  <path d="m149.9 125.4 2.74 1.47v3.51l-2.74-1.52v-3.46z" fill="#90B8CB" stroke="#060606" stroke-miterlimit="10" stroke-width=".3"/>
  <path d="m129 132.8 2.87 1.49v3.14l-2.87-1.59v-3.04z" fill="#90B8CB" stroke="#060606" stroke-miterlimit="10" stroke-width=".3"/>
  <path d="m149.8 131.9 3.01 1.49v6.51l-3.01-1.68v-6.32z" fill="#96674F" stroke="#060606" stroke-miterlimit="10" stroke-width=".3"/>
  <path d="m74.48 143.9c0 3.33 4.7 6.19 11.73 6.19 5.9 0 10.6-2.29 11.08-5.1l-1.28-1.09-0.72-10.84-20.47-0.27-0.34 11.11z" fill="#825646" stroke="#060606" stroke-miterlimit="10" stroke-width=".3"/>
  <path d="m74.48 142.2v1.62c0 2.78 5.15 5.06 11.73 5.06s11.06-2.28 11.06-5.06v-1.62h-22.79z" fill="#96674F" stroke="#060606" stroke-miterlimit="10" stroke-width=".3"/>
  <path d="m75.24 130.7v12.04l1.13 0.8v-12.3l-1.13-0.54z" fill="#96674F" stroke="#060606" stroke-miterlimit="10" stroke-width=".3"/>
  <path d="m94.91 130.8v13.15l0.83-0.82v-12.77l-0.83 0.44z" fill="#96674F" stroke="#060606" stroke-miterlimit="10" stroke-width=".3"/>
  <path d="m73.93 128.7c0 3.96 5.19 6 11.98 6 6.78 0 10.24-2.31 10.24-6 0-3.7-7.03-6.58-10.24-6.58-3.07 0-11.98 2.88-11.98 6.58z" fill="#96674F" stroke="#060606" stroke-miterlimit="10" stroke-width=".5"/>
  <path d="m85.22 122.1-5.9 11.29 0.52 0.27 5.69-11.49 5.43 11.36 0.65-0.35-6.39-11.08z" fill="#96674F" stroke="#060606" stroke-miterlimit="10" stroke-width=".3"/>
  <path d="m80.91 133.8v11.62l1.35 0.48v-11.9l-1.35-0.2z" fill="#825646" stroke="#060606" stroke-miterlimit="10" stroke-width=".3"/>
  <path d="m90.21 134.6v3.37l1.1 0.34v-3.61l-1.1-0.1z" fill="#825646" stroke="#060606" stroke-miterlimit="10" stroke-width=".3"/>
  <path d="m90.21 148.3 5.9-2.68v1.38l-5.9 2.92v-1.62z" fill="#825646" stroke="#060606" stroke-miterlimit="10" stroke-width=".3"/>
  <path d="m90.21 149.6 5.9-2.71v1.37l-5.9 2.71v-1.37z" fill="#825646" stroke="#060606" stroke-miterlimit="10" stroke-width=".3"/>
  <path d="m102 113.3 0.96 2.43 1.27-2.71" stroke="#060606" stroke-miterlimit="10" stroke-width=".3"/>
  <path d="m105.1 113.3 0.2 1.79" stroke="#060606" stroke-miterlimit="10" stroke-width=".3"/>
  <path d="m55.11 141 1.35 2.22 0.65-2.22v2.63" stroke="#060606" stroke-miterlimit="10" stroke-width=".3"/>
  <path d="m58.97 141.6v2.22" stroke="#060606" stroke-miterlimit="10" stroke-width=".3"/>
  <path d="m31.48 152.9 1.2 1.42 0.76-1.89 0.27 2.29" stroke="#060606" stroke-miterlimit="10" stroke-width=".3"/>
  <path d="m35.1 152.9 0.55 1.42 0.27-1.42" stroke="#060606" stroke-miterlimit="10" stroke-width=".3"/>
  <path d="m63.62 156.5 1.1 1.25 0.55-1.65v2.19" stroke="#060606" stroke-miterlimit="10" stroke-width=".3"/>
  <path d="m66.36 156.5 0.41 1.39" stroke="#060606" stroke-miterlimit="10" stroke-width=".3"/>
  <path d="m130.1 154.7 1.39 2.12 0.93-1.85v1.72" stroke="#060606" stroke-miterlimit="10" stroke-width=".3"/>
  <path d="m133.9 155 0.55 1.05" stroke="#060606" stroke-miterlimit="10" stroke-width=".3"/>
  <path d="m150.8 148.4 0.41 1.75" stroke="#060606" stroke-miterlimit="10" stroke-width=".3"/>
  <path d="m153.1 148.4v1.38" stroke="#060606" stroke-miterlimit="10" stroke-width=".3"/>
  <path d="m185.1 142.8 0.55 1.79 0.83-1.79" stroke="#060606" stroke-miterlimit="10" stroke-width=".3"/>
  <path d="m187 156.5 0.99 1.86 1.28-2.6 0.48 1.92" stroke="#060606" stroke-miterlimit="10" stroke-width=".3"/>
  <path d="m171.7 115.5 0.93 1.92 0.83-2.33" stroke="#060606" stroke-miterlimit="10" stroke-width=".3"/>
  <path d="m174.8 115.6 0.41 1.49" stroke="#060606" stroke-miterlimit="10" stroke-width=".3"/>
</svg>