<svg xmlns="http://www.w3.org/2000/svg" width="250" height="250" viewBox="0 0 250 250">
<!-- SVG created with Arrow, by QuiverAI (https://quiver.ai) -->
  <path d="m23.71 85.66h0.38c10.49 0 18.72 9.05 18.72 18.47 0 9.91-9.02 17.73-18.72 17.73h-0.38c-9.89 0-17.71-8.58-17.71-17.37v-1.46c0-9.07 8.31-17.37 17.71-17.37z" fill="#3F83E8"/>
  <path d="m119.9 86.22h1.17c10.13 0 17.11 9.69 17.11 17.1v1.99c0 9.42-8.68 17.07-17.59 17.07h-0.58c-9.86 0-17.42-8.84-17.42-17.47 0-9.75 8.06-18.69 17.31-18.69z" fill="#F3BA10"/>
  <path d="m224.7 130.4h1.97c9.7 0 17.25 9.53 17.25 17.72v1.46c0 9.35-8.45 17.49-17.82 17.49h-0.86c-9.86 0-18.31-8.47-18.31-17.77 0-9.43 7.83-18.9 17.77-18.9z" fill="#DD3D3A"/>
  <path d="m70.99 130.4h2.26c9.98 0 17.47 9.38 17.47 18.3v0.52c0 9.39-8.56 17.85-18.02 17.85h-1.45c-9.47 0-17.09-8.77-17.09-17.77 0-9.46 7.92-18.9 16.83-18.9z" fill="#52A763"/>
  <path d="m106.3 153.1h2v11.65h-2v-11.65zm0.99-5.4c0.83 0 1.41 0.57 1.41 1.35 0 0.77-0.58 1.32-1.41 1.32-0.82 0-1.37-0.55-1.37-1.32 0-0.78 0.55-1.35 1.37-1.35z" fill="#000"/>
  <path d="m112.4 149.8h4.54c5.67 0 8.02 2.59 8.02 7.25 0 4.67-2.35 7.68-8.02 7.68h-4.54v-14.93zm4.33 13.08c4.54 0 6.05-2.29 6.05-6 0-3.44-1.49-5.23-6.07-5.23h-2.13v11.23h2.15z" fill="#000"/>
  <path d="m127.6 149.8h9.27v1.71h-7.09v5.05h6.41v1.64h-6.41v4.83h7.34v1.7h-9.52v-14.93z" fill="#000"/>
  <path d="m144 149.6h2.37l5.96 15.12h-2.41l-1.49-4.04h-6.22l-1.57 4.04h-2.33l5.69-15.12zm3.73 9.42-2.62-6.97-2.73 6.97h5.35z" fill="#000"/>
  <path d="m153.5 162.2 0.48-1.71c1.52 1.08 2.91 1.27 4.47 1.27 2.13 0 3.6-0.99 3.6-2.72 0-1.3-0.8-2.07-3.13-2.67l-0.64-0.19c-2.59-0.75-3.93-1.74-3.93-3.96 0-2.47 1.78-3.05 4.71-3.05 1.2 0 2.99 0.27 4.07 0.91l-0.55 1.59c-1.2-0.8-2.54-0.92-3.55-0.92-1.95 0-2.85 0.48-2.85 1.85 0 1.23 0.95 1.84 2.83 2.44l0.72 0.26c2.8 0.92 4.08 1.79 4.08 3.93 0 2.61-2.09 4.19-5.43 4.19-1.64 0-3.2-0.24-4.88-1.22z" fill="#000"/>
  <path d="m165.7 164.2 0.33-1.71c0.85 0.39 1.72 0.53 2.66 0.53 1.9 0 2.79-0.92 2.79-2.55 0-1.37-0.96-2.17-2.86-2.17h-1.74v-1.47h1.21c1.69 0 2.66-0.87 2.66-2.29 0-1.13-0.75-1.79-2.11-1.79-0.82 0-1.57 0.19-2.39 0.59l-0.36-1.57c0.96-0.48 2-0.75 3.11-0.75 2.57 0 3.78 1.4 3.78 3.23 0 1.42-0.75 2.5-2.1 3.11 1.76 0.39 2.8 1.57 2.8 3.21 0 2.48-1.81 4.11-4.79 4.11-1.04 0-2.05-0.14-2.99-0.48z" fill="#000"/>
  <path d="m175.5 160c0-4.87 1.93-8.13 5.58-8.13 0.9 0 1.7 0.14 2.5 0.48l-0.44 1.57c-0.7-0.36-1.35-0.46-2.01-0.46-2.35 0-3.44 2.36-3.65 4.8 0.75-0.94 1.81-1.42 3.1-1.42 2.48 0 3.8 1.52 3.8 3.83 0 2.38-1.6 4.09-4.22 4.09-2.9 0-4.66-1.8-4.66-4.76zm6.94 0.55c0-1.59-0.82-2.41-2.41-2.41-1.32 0-2.31 0.6-2.65 1.57v0.24c0 2.02 1.04 3.2 2.7 3.2 1.49 0 2.36-1.04 2.36-2.6z" fill="#000"/>
  <path d="m186.5 164.1 0.34-1.66c0.87 0.39 1.67 0.53 2.61 0.53 1.85 0 2.79-0.99 2.79-2.57 0-1.37-0.94-2.24-2.86-2.24h-2.48l0.55-5.81h4.98v1.66h-3.73l-0.26 2.75h0.96c2.96 0 4.5 1.52 4.5 3.59 0 2.43-1.71 4.24-4.59 4.24-0.94 0-1.91-0.15-2.81-0.49z" fill="#000"/>
  <path d="m181.2 83h1.85c6.65 0 13.55 5.35 15.12 9.75l0.89 1.06-0.21 0.45-1.33-0.9c-1.11-4.15-7.85-9.35-13.82-9.35h-1.49c-3 0-6.15 1.78-8.34 2.76l-3.27 0.99c-7.55 1.11-14.59 11.06-14.59 18.42v2.23c0 5.5 5.69 11.77 9.65 13.09l2.45 0.56-0.21-0.45-1.7-0.69c-4.3-0.71-9.39-7.74-9.39-12.78v-1.78c0-7.72 8.35-17.77 15.39-18.6l1.5-0.65c2.11-1.1 4.4-2.2 7.5-2.2h0.45l-0.45-1.91z" fill="#000"/>
  <path d="m175.6 86.22 2.07-0.21 0.45 0.65 1.25-0.44c7.83 0 19.25 9.49 19.25 17.19v2.44c0 7.41-8.6 16.9-15.58 16.9h-3.45l-0.22 0.44 0.8 0.22h1.97c7.95 0 17.32-10.75 17.32-18.5v-1.22c0-8.28-10.35-17.77-19.15-17.77h-1.11c-8.91 0-22.11 10.09-22.11 19.27v1.71c0 8.26 9.03 16.51 17.69 16.51h0.96l-0.45-0.66h-1.11c-8.14 0-16.39-8.41-16.39-16.64v-0.9c0-8.09 9.8-17.98 17.81-18.99z" fill="#000"/>
  <path d="m178.2 87.11 0.89 0.22-0.44 0.43h-0.97l-0.44-0.65h0.96z" fill="#000"/>
  <path d="m181.1 87.11 1.7 0.65-0.21 0.25-1.71-0.44 0.22-0.46z" fill="#000"/>
  <path d="m188 88.82 3.26 1.24-0.21 0.25-2.69-1.1-0.36-0.39z" fill="#000"/>
  <path d="m192.7 90.91 2.69 1.49 0.22 0.42-2.91-1.71v-0.2z" fill="#000"/>
  <path d="m196.9 93.91 1.7 1.23v0.44l-1.49-1.25-0.21-0.42z" fill="#000"/>
  <path d="m199.5 97.09 0.89 1.73v0.45l-1.11-1.96 0.22-0.22z" fill="#000"/>
  <path d="m201.6 103.7 0.62 1.72v1.35l-0.62-1.1v-1.97z" fill="#000"/>
  <path d="m201.6 109.2-0.44 1.71-0.45 2.89 0.21 0.22 0.9-3.55v-1.27h-0.22z" fill="#000"/>
  <path d="m199.2 116.9-0.6 1.25 0.22 0.22 0.6-1.25v-0.22h-0.22z" fill="#000"/>
  <path d="m196.1 121.2-1.11 1.1 0.21-0.22 1.11-1.1-0.21 0.22z" fill="#000"/>
  <path d="m192.1 124.8-1.09 0.65v-0.22l1.09-0.65v0.22z" fill="#000"/>
  <path d="m188.7 126.5-1.1 0.58v-0.21l1.1-0.37z" fill="#000"/>
  <path d="m184.4 127.6-0.89 0.21v-0.21h0.89z" fill="#000"/>
  <path d="m178.7 127.2-0.97-0.28h-0.44l1.41 0.5v-0.22z" fill="#000"/>
  <path d="m173.8 125.3-0.69-0.43h0.21l0.48 0.43z" fill="#000"/>
</svg>