<svg xmlns="http://www.w3.org/2000/svg" width="200" height="200" fill="none" viewBox="0 0 200 200">
<!-- SVG created with Arrow, by QuiverAI (https://quiver.ai) -->
  <path d="m187.3 92.06-0.27 13.91s-7 12.98-22.93 17.81-24.52 5.28-36.29 12.5c-11.76 7.23-13.76 16.87-28.06 21.34-10.66 3.49-22.7 5.49-36 0-10.75-4.56-13.71-7.25-23.72-8.74-10.02-1.49-15.16-3.76-22.06-11.54-4-3.78-5.53-4.46-5.53-9.55l0.05-11.45 1.31-4.52 3.09-5.01 11.98-4.06 7.5-4.93 6.4-7.81 7-7.89 4.51-8.89 2.69-3.27 2.69-6.85 5.51-23.4 15.93 7.23 10.11 14.3-1.37-5.23 0.83-4.92 2.82-8.07 2.26-11.85 2.6-2.17 2.77 5.49 2.77 4.64 0.59 4.64 0.59 2.49-0.45 3.64 1.63 2.77 7.66-5.23 18.23-8.59 9.04 16.76 4.51 1.49 10.9 7.37 3.21-0.54 4.65 6.99 1.53-5.77 3.91-3.5 3.31 0.98 3.45 4.51 1.12 4.65-0.59 3.2 1.53 3.64 6.21 5.49 2.38 5.89v2.05z" fill="#A8D28B" stroke="#000" stroke-miterlimit="10" stroke-width=".6"/>
  <path d="m12.61 123.1s-0.49 5.64 1.62 9.96c1.78 3.79 10.91 12.01 18.84 13.64 7.94 1.63 13.88 2.3 20.92 6.14 7.05 3.84 16.09 8.06 28.49 7.51 9.56-0.93 17.49-2.88 22.73-6.57l2.95-10.66s-8.94 7.66-26.32 7.52c-13.86-0.11-15.73-2.27-24-6.22s-11.53-4.5-19.19-5.99c-7.66-1.48-25.64-7.12-26.04-15.33z" fill="#A87858" stroke="#000" stroke-miterlimit="10" stroke-width=".6"/>
  <path d="m187.2 93.83s-8.95 15.88-24.88 19.66c-7.66 1.63-13.11 1.82-24.11 5.46-14.09 4.16-20.9 14.03-31.01 24.18 3.91-1.12 10.4-6.12 16.7-9.04 8.27-5.03 14.71-6.3 28.8-9.02 18.04-4.16 24.48-8.33 34.41-20.03l0.09-11.21z" fill="#A87858" stroke="#000" stroke-miterlimit="10" stroke-width=".6"/>
  <path d="m105.1 98.71c-7.19-3.84-21.95-12.57-23.18-13.69l-5.02 5.13 11.14 7.67-11.86 8.11 3.05 6.12-4.32 5.08 1.03 5.98 30.04-17c3.11-1.95 2.84-5.49-0.88-7.4z" fill="#7EB56E" stroke="#000" stroke-miterlimit="10" stroke-width=".3"/>
  <path d="m106.1 88.01c-0.99 2.77 0.27 5.1 3.63 6.91 3.35 1.81 11.01 5.25 13.51 5.79 5.4 1.22 13.06-0.5 16.41-3.27l5.6-2.21-3.91-3.79-4.17 4.6c-3.04 1.67-9.53 1.58-12.44 0.09-2.92-1.49-11.96-6.12-13.59-7.2s-0.85-3.9 0-4.81l2.5-3.06-1.37-0.73-6.17 7.68z" fill="#E0D2A6" stroke="#000" stroke-miterlimit="10" stroke-width=".3"/>
  <path d="m173.6 83.4c2.55 1.26 5.15 2.88 4.56 5.51-0.59 2.62-5.99 3.5-8.1 3.5l-2.11-8.29 1.22-2 4.43 1.28z" fill="#010202" opacity=".15"/>
  <path d="m170.1 83.81 0.5 5.6h2.11l0.5-6.1-3.11 0.5z" fill="#966E57" stroke="#000" stroke-miterlimit="10" stroke-width=".3"/>
  <path d="m177.9 74.02c-0.93-1.03-0.7-1.9-0.13-3.19 0.8-1.86-1.21-4.91-2.65-4.91-1.22 0-0.63-4.21-4.58-4.21-3.36 0-2.9 3.54-4.12 4.3-2.44 1.54-2.53 4.91-1.31 7.22 1.22 2.32 1.13 4.49 1.67 5.89 1.13 3.05 3.29 4.19 6.4 3.69 4.5-0.73 6.09-4.63 4.72-8.79z" fill="#579351" stroke="#000" stroke-miterlimit="10" stroke-width=".6"/>
  <path d="m135.1 85.21c-2.64 0-4.36 3.26-4.36 4.39 0 0.72-0.55 0.72-0.55 1.56 0 1.12 1.44 1.95 2.43 1.95 0.68 0 1 1.44 2.48 1.44 1.72 0 2-0.93 3.13-1.44 1.4-0.68 2.17-1.4 2.17-3.51 0-2.54-2.26-4.39-5.3-4.39z" fill="#579351" stroke="#000" stroke-miterlimit="10" stroke-width=".3"/>
  <path d="m136.1 91.02 14.76 9.6 15.94-10.61v-10.61l-15.35-9.03-8.18 2.05-7.17 9.01v9.59z" fill="#F2D7AD" stroke="#000" stroke-miterlimit="10" stroke-width=".6"/>
  <path d="m135.5 81.11 8.18-10.1 7.66 17.83 16.88-9.08-8.54-16.06-15.49 8.54-8.69 8.87z" fill="#285675" stroke="#000" stroke-miterlimit="10" stroke-width=".6"/>
  <path d="m141.8 73.32 9.68 15.52" stroke="#113B57" stroke-miterlimit="10" stroke-width=".6"/>
  <path d="m150.9 70.01 7.66 14.29" stroke="#113B57" stroke-miterlimit="10" stroke-width=".6"/>
  <path d="m156 67.24 7.66 14.28" stroke="#113B57" stroke-miterlimit="10" stroke-width=".6"/>
  <path d="m154.7 88.93v5.85l8.5-5.18v-5.48l-8.5 4.81z" fill="#6794A5" stroke="#000" stroke-miterlimit="10" stroke-width=".6"/>
  <path d="m142.1 87.66 4.27 1.75v9.3l-4.27-2.49v-8.56z" fill="#966E57" stroke="#000" stroke-miterlimit="10" stroke-width=".3"/>
  <path d="m145 65.73c-1.39-0.54-1.85-0.04-2.39-0.04-0.68 0-1.51-0.98-2.91 0-1.39 0.97-1.39 2.37-1.39 4v2.45l1.81 1.27 3.99-1.27c0.99-0.32 3.59-1.63 3.59-3.44 0-1.26-0.99-2.34-2.7-2.97z" fill="#010202" opacity=".15"/>
  <path d="m113.9 47.12-8.79 9.6v2.49l1.59 0.41 6.58-7.53 7.94 15.01 19.79-10.88-8.55-17.22-18.56 8.12z" fill="#963331" stroke="#000" stroke-miterlimit="10" stroke-width=".6"/>
  <path d="m116.8 46.31 9.88 16.71" stroke="#6F2628" stroke-miterlimit="10" stroke-width=".6"/>
  <path d="m123.5 43.21 9.88 16.71" stroke="#6F2628" stroke-miterlimit="10" stroke-width=".6"/>
  <path d="m130.3 40.11 9.87 16.71" stroke="#6F2628" stroke-miterlimit="10" stroke-width=".6"/>
  <path d="m115.3 50.09 6.44 17.97 17.59-8.05v10.91l-18.17 9.41-15.06-21.57 7.21-11.32 1.99 2.65z" fill="#C69E7F" stroke="#000" stroke-miterlimit="10" stroke-width=".6"/>
  <path d="m111.7 59.92 1.81-2.91 1.44 4.16-3.25 1.85v-3.1z" fill="#C6E2DB" stroke="#000" stroke-miterlimit="10" stroke-width=".3"/>
  <path d="m124.7 68.19 4.36-1.99v6.5l-4.36 2.22v-6.73z" fill="#966E57" stroke="#000" stroke-miterlimit="10" stroke-width=".3"/>
  <path d="m126.8 67.24v6.69" stroke="#000" stroke-miterlimit="10" stroke-width=".3"/>
  <path d="m124.7 70.01 4.27-1.91" stroke="#000" stroke-miterlimit="10" stroke-width=".3"/>
  <path d="m132.7 64.8 3.45-1.95v5.48l-3.45 1.95v-5.48z" fill="#6794A5" stroke="#000" stroke-miterlimit="10" stroke-width=".3"/>
  <path d="m134.6 63.46v5.95" stroke="#000" stroke-miterlimit="10" stroke-width=".3"/>
  <path d="m132.8 66.38 3.26-1.67" stroke="#000" stroke-miterlimit="10" stroke-width=".3"/>
  <path d="m110.5 66.1 5.5-0.68v11.7l-5.5-3.19v-7.83z" fill="#966E57" stroke="#000" stroke-miterlimit="10" stroke-width=".3"/>
  <path d="m96.57 55.38v5.85h3.35v-5.85h-3.35z" fill="#966E57" stroke="#000" stroke-miterlimit="10" stroke-width=".3"/>
  <path d="m92.11 43.35c-1.39 1.49-1.3 3.86-0.53 4.93 0.5 0.68-0.49 1.45 0 3.03 0.78 2.63 3.46 4.3 6.9 4.3 4.13 0 7.24-2.77 7.24-6.51 0-2.09-1.49-3.31-1.49-4.18 0-0.86 0.89-1.85 0-2.73-0.89-0.87-1.62-1.37-1.62-3.43 0-2.05-0.69-3.54-2.18-5.03-1.12-1.12-0.81-4.73-2.81-4.73-1.99 0-2.35 4.73-2.58 5.61-0.41 1.67-2.62 2.89-2.62 4.52 0 1.12 1.08 1.53-0.31 4.22z" fill="#579351" stroke="#000" stroke-miterlimit="10" stroke-width=".6"/>
  <path d="m95.46 48.06c0.94 0.68 2.16 0.68 3.25 0" stroke="#000" stroke-miterlimit="10" stroke-width=".3"/>
  <path d="m56.38 63.02 8.55-23.4 16.21 6.95 10.11 14.66-1.13 1.4-7-11.45-10.66 19.19-16.08-7.35z" fill="#337894" stroke="#000" stroke-miterlimit="10" stroke-width=".6"/>
  <path d="m57.5 63.7 15.93 6.67 9.05-22.93-2.05-1.36-8.79 23.93-15.26-7.38 1.12 1.07z" fill="#285675" stroke="#000" stroke-miterlimit="10" stroke-width=".6"/>
  <path d="m63.01 47.53 0.9 8.39 2.86 1.72 3.04-4.02v-6.68l-6.8 0.59z" fill="#F2D7AD" stroke="#000" stroke-miterlimit="10" stroke-width=".6"/>
  <path d="m66.77 49.02c2.24 0 3.35-0.96 3.35-1.94s-1.59-1.47-3.35-1.47-3.16 0.63-3.16 1.47 1.31 1.94 3.16 1.94z" fill="#966E57" stroke="#000" stroke-miterlimit="10" stroke-width=".6"/>
  <path d="m61.18 69.1 7.66 3.09v5.72l-7.17-2.99-0.49-5.82z" fill="#C6E2DB" stroke="#000" stroke-miterlimit="10" stroke-width=".3"/>
  <path d="m64.44 70.37v6.24" stroke="#000" stroke-miterlimit="10" stroke-width=".3"/>
  <path d="m61.99 73.41 6.63 2.77" stroke="#000" stroke-miterlimit="10" stroke-width=".3"/>
  <path d="m72.46 70.37 1.53 16.65 13.48-9.11v-15.28l-4.45-12.54-10.56 20.28z" fill="#D8A880" stroke="#000" stroke-miterlimit="10" stroke-width=".3"/>
  <path d="m80.02 60.63c0.41-1.42 1.39-1.78 2.04-1.69 0.82 0.14 1.5 1.25 1.33 2.29-0.23 1.35-1.01 2.23-2.73 2.47-0.98 0.14-0.98-1.92-0.64-3.07z" fill="#966E57" stroke="#000" stroke-miterlimit="10" stroke-width=".3"/>
  <path d="m79.33 73.93 5.35-3.42v11.71l-5.35 3.39v-11.68z" fill="#966E57" stroke="#000" stroke-miterlimit="10" stroke-width=".3"/>
  <path d="m45.91 54.73c-3.72 0-4.7 8.21-6.19 13.46-1.07 4-0.18 10.93 4.69 12.14 2.72 0.68 4 0.46 5.67-0.93 2-1.68 2.63-2.28 2.5-8.16-0.14-5.89-3.14-16.51-6.67-16.51z" fill="#579351" stroke="#000" stroke-miterlimit="10" stroke-width=".6"/>
  <path d="m48.12 61.01c0.79 2.92 0.51 6.23-0.31 9-0.64 2.27-1.72 5.21-4.49 6.08l2.22 4.2c1.72 0 3.27-0.58 4.18-1.61 1.76-2.05 2.54-2.41 2.54-7 0-3.35-2.04-9.05-4.14-10.67z" fill="#FEFFFE" opacity=".15"/>
  <path d="m46.49 80.01 0.27 5.33 1.91-0.27 0.27-5.58-2.45 0.52z" fill="#966E57" stroke="#000" stroke-miterlimit="10" stroke-width=".3"/>
  <path d="m27.78 86.1c0.73-1.17 1.5-4.09 2.09-6.09 0.82-2.91 3.04-3.05 4.75-3 2.82 0.09 3.6 1.8 4.19 3.32 0.45 1.18 1.67 0.78 2.75 1.79 1.76 1.72 1.36 4.16 0.05 5.69-0.78 0.93 0.58 1.57 0.58 2.74 0 2.72-3.15 5.49-4.87 6.36-1.54 0.8-4.54 0.8-6.12-0.87-1.95-2.1-4.16-2.98-4.66-5.53-0.36-1.72 0.2-2.85 1.24-4.41z" fill="#579351" stroke="#000" stroke-miterlimit="10" stroke-width=".6"/>
  <path d="m34.13 97.31-0.14 6.1 2.33 0.18 0.77-6.55-2.96 0.27z" fill="#966E57" stroke="#000" stroke-miterlimit="10" stroke-width=".3"/>
  <path d="m13.92 97.04c-1.31 1.44-1.49 2.03-0.6 3.39 1.13 1.81-1.31 2.98-1.71 4.7-0.55 2.39 2.71 2.71 3.6 3.07 1.81 0.77 3.17 0.91 4.8 0.5 2.21-0.59 3.6-0.18 5-1.58 1.12-1.12 1.26-3.07 2.93-3.99 1.81-0.98 2.7-2.1 3.59-5.51 0.68-2.77 0.59-5.5-1.91-7.4-0.88-0.68-1.61-0.49-2.25-1.98-0.89-2.18-2.65-2.23-4.28-1.96-2.37 0.41-3.45 1.34-4.38 3.15-0.59 1.17-2.7 0-3.68 2.76-0.78 2.32 0.35 3-1.11 4.85z" fill="#579351" stroke="#000" stroke-miterlimit="10" stroke-width=".6"/>
  <path d="m17.78 101.5c1.17 0.59 1.81 1.18 2.84 0.95 0.79-0.18 1.29-1.01 2.42-0.78" stroke="#000" stroke-miterlimit="10" stroke-width=".3"/>
  <path d="m20.15 108.6-0.64 6.59 2.6 0.72 1.81-7.31h-3.77z" fill="#966E57" stroke="#000" stroke-miterlimit="10" stroke-width=".3"/>
  <path d="m27.09 109.7c-1.08 1.27-0.86 2.34-0.41 3.02 0.55 0.83-0.76 1.01-1.35 2.41-0.78 1.95 0.58 4.05 1.4 4.87 1.08 1.08 0.58 2.2 2.9 2.7 1.49 0.36 2.48 0.68 4.19 0 1.4-0.59 2.17-2.26 3.3-2.57 2.11-0.63 3.09-2.35 2.78-4.2-0.27-1.49-1.71-2.22-1.12-3.8 0.73-2.05-1.76-5.3-3.76-5.3-1.31 0-1.31-1.4-2.94-0.9-2.16 0.72-2.07 2.12-4.99 3.77z" fill="#579351" stroke="#000" stroke-miterlimit="10" stroke-width=".6"/>
  <path d="m34.71 106.6c1.49 0.49 3.71 2.12 4.02 3.98 0.41 2.32-1.12 2.41-0.9 3.81 0.32 1.81-0.67 3.66-2.78 4.3-1.67 0.54-2.93 0.59-5.04 0l1.12 4.01c1.72-0.14 2.65-0.55 3.78-2.04 0.87-1.21 1.7-1.61 3.1-1.88 1.62-0.32 2.7 0.27 3.64-0.32 1.44-0.93 1.17-3.2-0.64-4.55-1.17-0.88-0.62-1.86-0.89-3.22-0.54-2.49-2.65-4.3-5.41-4.09z" fill="#FEFFFE" opacity=".15"/>
  <path d="m30.47 123.9-0.27 7.18 3.05-0.05-0.14-7.13h-2.64z" fill="#966E57" stroke="#000" stroke-miterlimit="10" stroke-width=".3"/>
  <path d="m90.07 66.01 3.16 1.81c0.78 0.46 2.83 0.92 3.71 2.55 0.68 1.26 0.77 2.71 0.18 3.88-0.59 1.16 0.59 1.84 0 3.24-0.88 2.22-3.66 2.5-5.19 2-2.91-0.98-3.18-3.4-3.18-5.56l0.31-7.92h1.01z" fill="#579351" stroke="#000" stroke-miterlimit="10" stroke-width=".3"/>
  <path d="m93.23 61.71 0.5 8.3 13.03 0.5 0.45 5.85-7.66 7.76-8.3 1.09-2.5-2.17 1.13-3.64 1.83 0.52 13.5-4.91-1.13-10.9-10.85-2.4z" fill="#966E57" stroke="#000" stroke-miterlimit="10" stroke-width=".3"/>
  <path d="m94.31 62.02 0.36 7.08" stroke="#000" stroke-miterlimit="10" stroke-width=".3"/>
  <path d="m96.57 62.48 0.27 6.62" stroke="#000" stroke-miterlimit="10" stroke-width=".3"/>
  <path d="m98.79 62.63 0.27 6.78" stroke="#000" stroke-miterlimit="10" stroke-width=".3"/>
  <path d="m101 63.13 0.27 6.88" stroke="#000" stroke-miterlimit="10" stroke-width=".3"/>
  <path d="m103.2 63.7 0.27 6.58" stroke="#000" stroke-miterlimit="10" stroke-width=".3"/>
  <path d="m90.72 80.74 1.39 0.92 1.12-1.67 1.4 1.95 1.12-1.95 1.4 1.67 1.12-2.17 1.4 1.07 1.12-2.49 1.49 0.83 0.84-2.49 1.4 0.72 1.12-2.21" stroke="#000" stroke-miterlimit="10" stroke-width=".3"/>
  <path d="m75.06 113.1 1.95 0.32c1.71 0.32 2.93 1.35 3.47 3.35 0.59 2.21-1.45 4.16-3.08 4.34l-3.05 0.41 0.71-8.42z" fill="#579351" stroke="#000" stroke-miterlimit="10" stroke-width=".3"/>
  <path d="m42.72 107.4 8.8-15.96 16.88 8.59 8.51 8.04-0.78 1.17-6.01-6.52-9.04 14.02-17.59-8.76-0.77-0.58z" fill="#963331" stroke="#000" stroke-miterlimit="10" stroke-width=".6"/>
  <path d="m45.03 108.2 15.88 8.22 7.58-17.22 1.49 0.92-8.55 28.94-16.4-9.64v-11.22z" fill="#F2D7AD" stroke="#000" stroke-miterlimit="10" stroke-width=".3"/>
  <path d="m47.71 112.2 3.67 1.76v5.1l-3.67-1.85v-5.01z" fill="#6794A5" stroke="#000" stroke-miterlimit="10" stroke-width=".3"/>
  <path d="m54.11 115.3 3.67 1.75v5.1l-3.67-1.85v-5z" fill="#6794A5" stroke="#000" stroke-miterlimit="10" stroke-width=".3"/>
  <path d="m66.62 116.4 4.55-2.71 0.45 10.47-5 3.61v-11.37z" fill="#966E57" stroke="#000" stroke-miterlimit="10" stroke-width=".3"/>
  <path d="m50.17 93.11 7.94 6.92" stroke="#AF4E43" stroke-miterlimit="10" stroke-width=".6"/>
  <path d="m55.67 95.06 5.51 4.97" stroke="#AF4E43" stroke-miterlimit="10" stroke-width=".6"/>
  <path d="m60.62 97.31 4.45 3.31" stroke="#AF4E43" stroke-miterlimit="10" stroke-width=".6"/>
  <path d="m115.6 106.2c-1.49 0.36-1.67 2.22-1.99 3.09-0.54 1.49-1.98 1.35-1.98 2.84 0 1.63 1.44 2.8 2.57 3.48 1.81 1.17 2.93 1.58 5.04 1.35 2.55-0.27 4.46-0.63 5.85-2.12 1.81-2.05 2.59-4.06 1.1-6.73-1.13-2.13-3.49-2.63-5.11-2.18-1.58 0.49-2.71-0.45-5.48 0.27z" fill="#579351" stroke="#000" stroke-miterlimit="10" stroke-width=".3"/>
  <path d="m108 112.6c-1.76 0.27-2.22 1.44-2.62 2.84-0.4 1.16-1.71 1.02-1.12 2.69 0.5 1.49 2.12 2.47 3.7 2.56 1.03 0.05 1.17 0.73 2.56 0.41 1.76-0.45 4.81-2.03 5.4-3.88 0.78-2.49-1.76-4.81-3.48-5.21-1.81-0.5-2.64 0.27-4.44 0.59z" fill="#579351" stroke="#000" stroke-miterlimit="10" stroke-width=".3"/>
  <path d="m112.4 125.4 1.54-0.32-0.31 8-1.54 0.83 0.31-8.51z" fill="#966E57" stroke="#000" stroke-miterlimit="10" stroke-width=".3"/>
  <path d="m116.7 122.2 1.9-0.55-0.27 6.34-1.9 1.04 0.27-6.83z" fill="#966E57" stroke="#000" stroke-miterlimit="10" stroke-width=".3"/>
  <path d="m120.6 117.4 1.9-0.54-0.27 6.35-1.9 1.03 0.27-6.84z" fill="#966E57" stroke="#000" stroke-miterlimit="10" stroke-width=".3"/>
  <path d="m124.6 115 1.9-0.55-0.27 6.35-1.9 1.04 0.27-6.84z" fill="#966E57" stroke="#000" stroke-miterlimit="10" stroke-width=".3"/>
  <path d="m130.9 111.1 1.9-0.55-0.27 6.35-1.9 1.03 0.27-6.83z" fill="#966E57" stroke="#000" stroke-miterlimit="10" stroke-width=".3"/>
  <path d="m135.9 108.8 1.9-0.55-0.27 6.35-1.9 1.03 0.27-6.83z" fill="#966E57" stroke="#000" stroke-miterlimit="10" stroke-width=".3"/>
  <path d="m141.4 107.6 1.9-0.54-0.27 6.34-1.9 1.04 0.27-6.84z" fill="#966E57" stroke="#000" stroke-miterlimit="10" stroke-width=".3"/>
  <path d="m146.4 106.2 1.9-0.55-0.27 6.35-1.9 1.03 0.27-6.83z" fill="#966E57" stroke="#000" stroke-miterlimit="10" stroke-width=".3"/>
  <path d="m151.9 105.4 1.31 0.27-0.27 6.35-1.53 0.59 0.49-7.21z" fill="#966E57" stroke="#000" stroke-miterlimit="10" stroke-width=".3"/>
  <path d="m110 87.66 0.36 3.27 16.88 7.08 1.35-3.5-1.35-1.67-13.64-6.14-3.6 0.96z" fill="#9F6851" stroke="#000" stroke-miterlimit="10" stroke-width=".3"/>
  <path d="m113.9 80.01 0.99-0.52v8.66" stroke="#000" stroke-miterlimit="10" stroke-width=".3"/>
  <path d="m119.4 82.22 1.08 0.41v7.33" stroke="#000" stroke-miterlimit="10" stroke-width=".3"/>
  <path d="m124.7 86.7 0.83 0.96v3.78" stroke="#000" stroke-miterlimit="10" stroke-width=".3"/>
  <path d="m116.9 83.62 2.5-1.4 1.08 1.4-1.08 1.72h-1.81l-0.69-1.72z" fill="#579351" stroke="#000" stroke-miterlimit="10" stroke-width=".3"/>
  <path d="m122.7 87.02 1.72-1.01 1.35 1.65-1.07 1.77-1.63-0.82-0.37-1.59z" fill="#579351" stroke="#000" stroke-miterlimit="10" stroke-width=".3"/>
  <path d="m112.5 82.63 1.95-1.57 1.18 1.57-0.99 1.49h-1.63l-0.51-1.49z" fill="#579351" stroke="#000" stroke-miterlimit="10" stroke-width=".3"/>
  <path d="m54.02 83.26c-0.09-2.25 2.06-4.14 2.89-4.58 1.27-0.73 2.1-1.05 3.32-0.37 0.89 0.5 0.85 0.09 2.47 0 2.01-0.13 3.41 0.68 4.34 1.7 1.08 1.23 1.91 1.6 2.27 3.21 0.45 1.9-0.23 4.44-1.81 4.89-1.08 0.36-1.72-0.62-2.79 0-1.49 0.93-2.98 0.61-4.2-0.3-0.84-0.64-1.82 0.3-2.9-0.15-1.58-0.73-3.5-1.65-3.59-4.4z" fill="#579351" stroke="#000" stroke-miterlimit="10" stroke-width=".3"/>
  <path d="m154.7 97.82c0.59-1.86 2.22-2.9 3.05-3.13 0.88-0.23 1.02-1.9 2.69-1.9 0.99 0 1.49 0.36 2.36-0.46 1.13-1.12 1.96-1.12 3.13-0.89 1.71 0.36 3.11 2.18 3.11 3.94 0 1.26-1.22 1.71-0.86 2.54 0.55 1.33-1.08 3.14-3.13 3.69-1.26 0.36-1.72 1.28-3.43 1.28-1.27 0-1.77-0.78-2.89-0.46-2.11 0.64-5.06-1.72-4.03-4.61z" fill="#579351" stroke="#000" stroke-miterlimit="10" stroke-width=".3"/>
  <path d="m129.9 125.1-2.77 11.21 5.63-3.21-1.12-8.55-1.74 0.55z" fill="#010202" opacity=".15"/>
  <path d="m79.07 142c-0.99-2.17-1.88-3.1-3.59-2.82-1.76 0.27-3.39 0.82-4.17 2.22-0.88 1.67-1.24 2.7-0.97 4.1 0.41 2 1.8 2.59 3.38 2.73 1.49 0.14 3.11-0.59 4.19-1.18 1.71-0.98 2.3-2.3 1.16-5.05z" fill="#579351" stroke="#000" stroke-miterlimit="10" stroke-width=".3"/>
  <path d="m63.61 143.1c0.45-1.31 1.53-1.94 2.51-1.72 0.89 0.23 1.07 0.78 2 0.78l-0.4 3.73-2.11 0.23c-1.17-0.41-2.8-0.68-2-3.02z" fill="#579351" stroke="#000" stroke-miterlimit="10" stroke-width=".3"/>
  <path d="m76.91 139.2-0.89 7.52-5.9-0.6-0.5-6.92 0.99-8.05-0.49-2.53 1.66-3.4 2.44-0.14 1.71 3.27v2.62l0.98 8.23z" fill="#F9F0E1" stroke="#000" stroke-miterlimit="10" stroke-width=".6"/>
  <path d="m70.12 129.1 0.99 0.88 2.32 0.68 2.5-0.99" stroke="#963331" stroke-miterlimit="10" stroke-width="1.5"/>
  <path d="m70.12 133.1 1.53 1.36 2.07 0.5 2.72-1.03" stroke="#963331" stroke-miterlimit="10" stroke-width="1.5"/>
  <path d="m70.12 138.4 1.81 1.4 2.06 0.27 2.45-1.49" stroke="#963331" stroke-miterlimit="10" stroke-width="1.5"/>
  <path d="m82.11 143.8-2.49 1.49v-2.2l0.79-1.63 1.7 0.51v1.83z" fill="#579351" stroke="#000" stroke-miterlimit="10" stroke-width=".3"/>
  <path d="m82.33 131c0.79-2.26 2.28-4.21 3.99-4.21 2.37 0 3.59 2.04 3.95 4.21 0.45 2.63-0.67 4.95-3.54 5.32-2.81 0.41-5.72-1.35-4.4-5.32z" fill="#579351" stroke="#000" stroke-miterlimit="10" stroke-width=".3"/>
  <path d="m92.31 125.1c0.64-2.05 1.81-4.96 4.17-4.96 1.95 0 3.27 0.98 4.05 3.8s-0.1 5.58-2.91 6.41c-2.81 0.82-6.57-1.26-5.31-5.25z" fill="#579351" stroke="#000" stroke-miterlimit="10" stroke-width=".3"/>
  <path d="m41.65 129.1 1.17-2.54 2.81-0.5 1.76 1.91 2.45-0.32 1.58 2.05 2.82 0.27 2.17 2.22v3.54l-1.49 0.93-1.81-2-1.72 0.5-4-3.01-2.36-0.59-3.38-2.46z" fill="#94966C" stroke="#000" stroke-miterlimit="10" stroke-width=".3"/>
  <path d="m189.7 93.11c4.96 3.02 7.91 8.5 6.52 13.97" stroke="#000" stroke-miterlimit="10" stroke-width=".3"/>
  <path d="m192.1 103.1c0.54 5.16-5.46 11.85-9.87 14.95" stroke="#000" stroke-miterlimit="10" stroke-width=".3"/>
  <path d="m171.5 131.1c-5.54 4.82-12.35 6.99-21.44 8.66" stroke="#000" stroke-miterlimit="10" stroke-width=".3"/>
  <path d="m146.7 140.7c-4.64 1.63-8.45 3.58-11.66 5.17" stroke="#000" stroke-miterlimit="10" stroke-width=".3"/>
  <path d="m142.7 137.3c-9.65 2.77-17.59 6.89-23.88 13.62-4.92 5.29-11.75 8.44-16.71 9.97" stroke="#000" stroke-miterlimit="10" stroke-width=".3"/>
  <path d="m92.11 168.3c-11.3 3.79-24.39 1.79-33.69-2.61" stroke="#000" stroke-miterlimit="10" stroke-width=".3"/>
  <path d="m72.92 165c-9.04-1.31-16.8-8.25-32.91-11.02-2.11-0.36-2.89-0.59-3.78-0.81" stroke="#000" stroke-miterlimit="10" stroke-width=".3"/>
  <path d="m28.83 149.7c-8.16-3.69-18.72-11.1-21.67-15.82-1.13-2-0.45-6.51-0.09-10.5" stroke="#000" stroke-miterlimit="10" stroke-width=".3"/>
  <path d="m11.06 145.9c-6-4.94-7.85-9.62-7.31-13.79" stroke="#000" stroke-miterlimit="10" stroke-width=".3"/>
  <path d="m75.39 89.11-3.25 9" stroke="#000" stroke-miterlimit="10" stroke-width=".3"/>
  <path d="m77.61 88.43-2.22 7.61" stroke="#000" stroke-miterlimit="10" stroke-width=".3"/>
  <path d="m80.11 87.66-1.95 6.85" stroke="#000" stroke-miterlimit="10" stroke-width=".3"/>
  <path d="m83.16 86.7-0.83 4.74" stroke="#000" stroke-miterlimit="10" stroke-width=".3"/>
  <path d="m68.21 94.92 1.08-2.73 1.32-0.75 0.68 4.6" stroke="#000" stroke-miterlimit="10" stroke-width=".3"/>
  <path d="m70.61 91.44 1.17-1.43 0.78 5.37" stroke="#000" stroke-miterlimit="10" stroke-width=".3"/>
  <path d="m74.41 93.11 0.98-3.1" stroke="#000" stroke-miterlimit="10" stroke-width=".3"/>
  <path d="m73.99 96.04 12.94-3.85 0.99 1.43-11.79 9.51-2.14-1.52v-5.57z" fill="#9F6851" stroke="#000" stroke-miterlimit="10" stroke-width=".3"/>
  <path d="m80.48 102.1 1.45 1.71 1.85-2.21 0.94 1.52-1.56 2-2.68-2v-1.02z" fill="#9F6851" stroke="#000" stroke-miterlimit="10" stroke-width=".3"/>
  <path d="m86.1 98.71 1.58 1.41 1.39-2.81 0.78 1.4-2.17 1.91-1.58-1.42v-0.49z" fill="#9F6851" stroke="#000" stroke-miterlimit="10" stroke-width=".3"/>
  <path d="m90.41 96.22 1.4-1.16 0.89 0.98-0.59 1.27-1.7-1.09z" fill="#9F6851" stroke="#000" stroke-miterlimit="10" stroke-width=".3"/>
  <path d="m85.92 108.2 2.22 4.13 15.94-9.61-0.87-2.1-2.5 0.99-1.65-3.99-1.85 3-1.13-0.59-1.77 3.1-1.39-1.02-2.81 4-1.71-0.78-2.48 2.87z" fill="#9F6851" stroke="#000" stroke-miterlimit="10" stroke-width=".3"/>
</svg>