<svg xmlns="http://www.w3.org/2000/svg" width="250" height="250" fill="none" viewBox="0 0 250 250">
<!-- SVG created with Arrow, by QuiverAI (https://quiver.ai) -->
  <path d="m10.39 134.2-0.12 18.67c0 8.23 8.97 21.3 24.56 28.84 11.58 5.76 18.79 7.01 30.14 12.76 11.35 4.7 15.82 11 24.91 14.61 7.94 3.28 17.93 4.87 24.91 4.87 14.48 0 34.17-2.69 45.4-16.22 7.65-9.38 8.23-11.16 16.06-17.82 7.82-6.66 21.23-10.1 32.58-17s27.64-22.7 29.42-30.08l0.94-16.64-1.43-4.94-64.52-25-8.83-10.98-4.7-1.78-6.43-18.42-7.02-7.95-17.2-7.94-38.34-1.17-1.66 1.17-17.32 1.78-20.7 2.92-6.91 3.24c-7.94 5.53-15.32 12.55-16.75 20.92l-1.78 8.55-0.62 19.69-2.25 9.62-11.02 17.2-1.32 11.1z" fill="#A3D186" stroke="#061A18" stroke-miterlimit="10" stroke-width=".7"/>
  <path d="m26.58 75.97c-0.91 5.64-1.1 14.81 1.04 20.08 1.49-2.98 1.9-14.14-1.04-20.08z" fill="#A87858" stroke="#061A18" stroke-miterlimit="10" stroke-width=".7"/>
  <path d="m10.27 137-0.13 15.74c0 8.23 8.97 21.3 24.56 28.84 11.58 5.75 16.41 6.32 27.76 12.07 11.35 4.7 15.82 11 24.91 14.61 7.94 3.28 18.46 5.51 27.29 5.51 14.48 0 33.31-3.61 43.3-16.07 7.65-9.38 8.95-13.7 18.16-20.6 8.37-6.53 20.83-9.1 32.18-16s27.99-21.26 30.36-29.49l0.65-15.42c-3.15 11.84-14.66 23.91-35.1 32.74-10.24 3.81-22.2 6.85-29.58 14.8-13.2 11.71-14.44 20.01-22.81 27.39-8.37 6.78-19.01 8.43-30 8.18-12.7 0.25-20.77-0.95-35.13-8.9-10.98-5.2-16.18-9.25-25.15-13.71-10.65-5.41-21.76-7.45-27.93-10.51-12.59-4.94-21.56-11.24-23.34-29.18z" fill="#B77E59" stroke="#061A18" stroke-miterlimit="10" stroke-width=".7"/>
  <path d="m174.9 176.2c7.45-4.59 11-15.57 14.06-18.88 1.97-1.32 10.04-4.31 13.09-5.56 7.15-2.63 20.68-9.67 24.05-27.85l-9.72 5.53c-7.18 4.46-16.15 6.9-21.68 2.44-6.9 5.82-16.28 11.21-27.56 6.51l-26.47-15.3c5.36-0.28 3.58-1.45-5.25-5.57-6.9-3.28-11.3-9.41-25.38-17.78-8.97-5.33-20.32-11.7-27.57-16.64l7.38-8.69 17.95 8.48 21.18-12.2 10.06-4.7 7.38 1.42 3.48 3.62-10.86 4.05-3.89-4.05 5.75-2.73 7.95-2.31 7.45 7.95 3.81 1.25 7.69 8.45 6.1 2.6 12.83 3.85 28.61 4.94c12.39 2.86 22.41 8.81 23.31 18.66-2.37 10.49-16.2 24.22-34.45 32.31-8.37 3.81-19.01 6.17-28.6 14.44-6.7 6.07-5.6 11.17-0.7 15.76z" fill="#4D7F05" opacity=".15"/>
  <path d="m136.7 200c-0.83 4.7-5.73 10.71-9.54 12.9 9.79-1.64 21.84-5.76 28.92-12.9 5.11-5.2 8.92-11.82 12.73-15.98-5.95 3.88-10.01 9.08-13.82 11.68-4.76 3.12-9.73 4.3-18.29 4.3z" fill="#7D4A26" opacity=".15"/>
  <path d="m244.9 123.1c2.86 9.73-0.88 18.52-13 29.71" stroke="#061A18" stroke-miterlimit="10" stroke-width=".5"/>
  <path d="m238.7 152.8c-4.9 9.1-14.75 15.19-26.74 18.94" stroke="#061A18" stroke-miterlimit="10" stroke-width=".5"/>
  <path d="m223.6 158.2c-7.45 7.45-21.5 13.07-32.92 19.59" stroke="#061A18" stroke-miterlimit="10" stroke-width=".5"/>
  <path d="m188.2 177.7c-11.21 6.9-14.33 13.32-19.38 21.69" stroke="#061A18" stroke-miterlimit="10" stroke-width=".5"/>
  <path d="m167.5 202.2c-9.51 10.62-15.36 14.61-34.32 17.21" stroke="#061A18" stroke-miterlimit="10" stroke-width=".5"/>
  <path d="m128.4 226.1c-11.48 2.86-26.24 1.76-36.16-4.06" stroke="#061A18" stroke-miterlimit="10" stroke-width=".5"/>
  <path d="m98.32 216.8c-9.51-2.1-17.45-8.15-26.96-11.63" stroke="#061A18" stroke-miterlimit="10" stroke-width=".5"/>
  <path d="m21.43 180.7c-10.57-6.9-18.02-17.27-16.31-35.69" stroke="#061A18" stroke-miterlimit="10" stroke-width=".5"/>
  <path d="m33.96 195c-9.51-2.86-16.14-7.87-22.63-15.31" stroke="#061A18" stroke-miterlimit="10" stroke-width=".5"/>
  <path d="m10.72 107.3c6.9-5.69 5.41-14.93 3.92-21.83" stroke="#061A18" stroke-miterlimit="10" stroke-width=".5"/>
  <path d="m21.91 88.13c-0.97-6.12-0.35-11.88 0.82-19.19" stroke="#061A18" stroke-miterlimit="10" stroke-width=".5"/>
  <path d="m36.65 96.05c0.41 3.51 5.01 4.87 7.41 4.59 2.99-0.41 4.77-2.63 4.77-5.59l-1.78-2.43-4.83-0.48-4.9 0.48-0.67 3.43z" fill="#4D7F05" opacity=".15"/>
  <path d="m90.31 169.3c0.62 2.11 5.52 3.6 7.51 3.32l2.89-1.78-1.17-4.8-5.43 0.14-3.8 1.17v1.95z" fill="#4D7F05" opacity=".15"/>
  <path d="m148.7 172-18.63 10.59-12.22-3.85-1.71-1.04 0.95-4.69 12.16-6.86 4.83-1.18 11.21 3 3.41 4.03z" fill="#4D7F05" opacity=".15"/>
  <path d="m185 107.1-3.74-2.93-2.31-2.96 1.78-4.12 2.72-1.07 7.38 1.65 5.75 2.94 0.62 4.12-3.74 2.37h-8.46z" fill="#4D7F05" opacity=".15"/>
  <path d="m227.1 115.6-1.85-3.28 1.85-2.43 3.61 0.62 2.34 3.19-0.62 3.35-5.33-1.45z" fill="#4D7F05" opacity=".15"/>
  <path d="m21.84 127.6v-4.51l1.17 0.62v3.21l1.17-2.67 1.17 0.56v2.11l1.17-2.67v3.35h-4.68z" fill="#061A18" opacity=".15"/>
  <path d="m90.72 112.1v-2.37l0.88 0.42v1.81l1.39-2.23v2.37h-2.27z" fill="#061A18" opacity=".15"/>
  <path d="m125.3 127.6v-2.79l1.1 0.86v1.93l1.24-1.93 1.24 1.93 0.91-1.93v1.93h-4.49z" fill="#061A18" opacity=".15"/>
  <path d="m225.3 113.7v-2.67l0.85 0.28v2.39l1-2.67v2.67h-1.85z" fill="#061A18" opacity=".15"/>
  <path d="m229.1 113.7v-2.39l0.84-0.28v2.67h-0.84z" fill="#061A18" opacity=".15"/>
  <path d="m183.9 100.6v-2.22l0.97 0.49v1.73l0.95-1.28v1.28h-1.92z" fill="#061A18" opacity=".15"/>
  <path d="m187.2 101.2v-1.28l1.07-0.2v1.48h-1.07z" fill="#061A18" opacity=".15"/>
  <path d="m77.65 96.05v-1.62l1.04 0.28v1.34h-1.04z" fill="#061A18" opacity=".15"/>
  <path d="m80.73 96.05v-1.62l0.88 0.28v1.34h-0.88z" fill="#061A18" opacity=".15"/>
  <path d="m41.05 152.2 7.31-2.97 8.37 7.54 6.02 1.17 8.97-4.83 7.31-1.94 1.24-5.07-5.11-2.98-10.64 0.55-12.29-2.5-10.01 0.95-6.1 0.73v4.19l4.93 5.16z" fill="#4D7F05" opacity=".15"/>
  <path d="m148.1 112.3 5.17-2.64 6.91 4.02 14.83-9.51 3.3 2.93-8.6 6.99-8.97 4.94-8.93-1.79-4.47-1.66 0.76-3.28z" fill="#4D7F05" opacity=".15"/>
  <path d="m137.1 104.8-4.31-1.75-2.72-2.37 1.43-3.52 4.54-1.07 4.06 1.07 2.14 4.12-5.14 3.52z" fill="#4D7F05" opacity=".15"/>
  <path d="m46.7 34.42 24.45-13.91 1.5-0.2 18.07 3.61 0.21 48.81-24.01 12.78-20.5-12.78 0.28-38.31z" fill="#E0E0E4" stroke="#061A18" stroke-miterlimit="10" stroke-width=".7"/>
  <path d="m66.64 39.19-19.94-5.27v38.81l19.94 12.78v-46.32z" fill="#D8D8DC" stroke="#061A18" stroke-miterlimit="10" stroke-width=".7"/>
  <path d="m66.64 47.13-7.72-3.24v25.93l6.9 3.19 0.82-25.88z" fill="#96C7D8" stroke="#061A18" stroke-miterlimit="10" stroke-width=".7"/>
  <path d="m90.72 23.92-24.08 15.27v46.32l24.08-12.78v-48.81z" fill="#CDC5DB" stroke="#061A18" stroke-miterlimit="10" stroke-width=".7"/>
  <path d="m71.74 45.09 12.83-5.9v16.03l-12.83 7.03v-17.16z" fill="#92A5C4" stroke="#061A18" stroke-miterlimit="10" stroke-width=".7"/>
  <path d="m71.74 52.12 12.83-5.46" stroke="#061A18" stroke-miterlimit="10" stroke-width=".7"/>
  <path d="m85.12 65.35-8.76 3.38v10.4l8.76-4.2v-9.58z" fill="#819CC9" stroke="#061A18" stroke-miterlimit="10" stroke-width=".7"/>
  <path d="m92.22 37.95 21.32-12.78h1.17l14.13 5.53 0.43 38.98-21.25 13.23-16.88-10.98 1.08-33.98z" fill="#E0E0E4" stroke="#061A18" stroke-miterlimit="10" stroke-width=".7"/>
  <path d="m107.7 43.01-15.52-4.44v33.36l15.52 10.98v-39.9z" fill="#E8E8ED" stroke="#061A18" stroke-miterlimit="10" stroke-width=".7"/>
  <path d="m128.8 30.7-21.04 12.31v39.9l21.32-13.23-0.28-38.98z" fill="#B8B3CE" stroke="#061A18" stroke-miterlimit="10" stroke-width=".7"/>
  <path d="m109 47.13-9.78-1.1v6.66l8.37 4.7 9.03-4.7v-7.6l-7.62 2.04z" fill="#819CC9" stroke="#061A18" stroke-miterlimit="10" stroke-width=".7"/>
  <path d="m123.5 63.01-9.51 5.04v9.03l9.51-5.49v-8.58z" fill="#819CC9" stroke="#061A18" stroke-miterlimit="10" stroke-width=".7"/>
  <path d="m141.8 64.73v5.68h2.89v-5.68h-2.89z" fill="#89644B" stroke="#061A18" stroke-miterlimit="10" stroke-width=".5"/>
  <path d="m148.7 57.93c0 6.13-2.29 8.08-5.55 8.08s-7.13-2.36-7.2-7.16 3.94-16.81 6.66-17.09c2.73-0.27 6.09 10.09 6.09 16.17z" fill="#6BA353" stroke="#061A18" stroke-miterlimit="10" stroke-width=".7"/>
  <path d="m144 43.14c0.85 4.7 2.19 9.9 1.3 13.92-0.88 4.02-3.54 6.09-6.73 5.4 1.28 2.29 3.48 3.46 5.57 3.18 3.48-0.48 4.73-3.93 4.59-8.32-0.14-3.81-2.61-12.16-4.73-14.18z" fill="#061A18" opacity=".15"/>
  <path d="m42.22 91.73v5.69h2.89v-5.69h-2.89z" fill="#89644B" stroke="#061A18" stroke-miterlimit="10" stroke-width=".5"/>
  <path d="m36.12 87.04c0-3.55 1.92-4.2 1.3-5.98-0.62-3.21 2.34-6.9 4.8-6.44 2.19 0.21 2.89 2.11 3.44 3.02 1.17 0.42 1.95 1.07 1.95 2.49 0 1-0.42 1.63-0.91 2.05 1.42 0.73 3.01 1.76 3.01 4.45 0 3.75-3.84 5.99-7.49 5.99-3.19 0-6.1-2.44-6.1-5.58z" fill="#559359" stroke="#061A18" stroke-miterlimit="10" stroke-width=".7"/>
  <path d="m35.91 109.1 23.81-12.48 15.02 7.6 0.42 9.51 8.83 11.91v17.08l-4.96 3.39-14.51 8.12-28.4-16.63-0.21-28.5z" fill="#F0D8D6" stroke="#061A18" stroke-miterlimit="10" stroke-width=".7"/>
  <path d="m52.65 116.6 22.09-12.42v9.51l-22.09 12.46v-9.55z" fill="#D9B3BC" stroke="#061A18" stroke-miterlimit="10" stroke-width=".7"/>
  <path d="m52.65 125.6 11.28 11.19 20.06-11.19-10.38-10.49-20.96 10.49z" fill="#AF594A" stroke="#061A18" stroke-miterlimit="10" stroke-width=".7"/>
  <path d="m52.65 136.4 5.5 2.3v14.16l-5.5-3.6v-12.86z" fill="#A87858" stroke="#061A18" stroke-miterlimit="10" stroke-width=".7"/>
  <path d="m37.32 111 10.63 6.59v12.45l-9.51-5.25-1.12-13.79z" fill="#B6D1DD" stroke="#061A18" stroke-miterlimit="10" stroke-width=".7"/>
  <path d="m38.44 117.6 9.51 4.7" stroke="#061A18" stroke-miterlimit="10" stroke-width=".7"/>
  <path d="m58.15 122.3 8.49 11.39" stroke="#061A18" stroke-miterlimit="10" stroke-width=".7"/>
  <path d="m64.52 120.1 8.83 11.2" stroke="#061A18" stroke-miterlimit="10" stroke-width=".7"/>
  <path d="m70.51 116.6 8.52 11.39" stroke="#061A18" stroke-miterlimit="10" stroke-width=".7"/>
  <path d="m63.93 136.8 20.06-11.19v17.08l-5.5 3.92-14.56 7.59v-17.4z" fill="#D9B3BC" stroke="#061A18" stroke-miterlimit="10" stroke-width=".7"/>
  <path d="m30.76 141.4c0.69-3.77 2.99-5.61 4.49-5.34 0.87 0.14 1.4 0.73 1.76 1.06 0.76-0.71 2.75-1.13 3.76-0.4 0.49 0.34 0.69 0.91 0.76 1.4 1.1-0.35 2.88-0.21 3.58 0.89 0.41 0.63 0.41 1.26 0.27 1.81 0.98 0.21 2.23 1.07 2.23 2.48 0 0.63-0.28 1.11-0.56 1.53 0.62 0.34 1.31 1.1 1.31 2.18 0 1.71-2.35 2.8-4.23 2.19-0.82-0.28-1.37-0.9-1.71-1.46-1.16 0.91-2.94 0.77-3.98-0.35-0.53-0.55-0.81-1.25-0.88-1.88-0.91 0.42-2.65 0.14-3.4-1.03-1.43 0.07-3.89-0.84-3.4-3.08z" fill="#559359" stroke="#061A18" stroke-miterlimit="10" stroke-width=".7"/>
  <path d="m70.02 149.3c0-3 2.43-5.63 4.21-5.49 1.17 0.07 1.93 1.05 2.28 1.6 0.94-0.97 2.66-1.25 3.76-0.35 0.66 0.56 0.87 1.36 0.87 1.98 0.97 0.28 1.66 1.29 1.66 2.39 0 1.32-0.97 2.22-1.59 2.43 0.07 1.11-0.97 3.47-3.34 3.47-1.1 0-1.95-0.69-2.4-1.38-1.04 0.97-2.68 0.77-3.68-0.21-1.17-1.18-1.77-2.78-1.77-4.44z" fill="#559359" stroke="#061A18" stroke-miterlimit="10" stroke-width=".7"/>
  <path d="m95.04 162.3v6.29h2.22v-6.29h-2.22z" fill="#89644B" stroke="#061A18" stroke-miterlimit="10" stroke-width=".5"/>
  <path d="m90.17 157.2c0-4.45 4.08-18.54 6.74-18.54 3.12 0 4.81 10.08 4.81 18.54 0 3.98-2.79 5.72-4.81 5.72-3.01 0-6.74-2.29-6.74-5.72z" fill="#6BA353" stroke="#061A18" stroke-miterlimit="10" stroke-width=".7"/>
  <path d="m100 148.7 18.83-11.02 14.69 8.23v7.15l11.29 5.66v13.87l-15.43 9.09-13.25-2.36-16.13-8.99v-21.63z" fill="#E7E8EE" stroke="#061A18" stroke-miterlimit="10" stroke-width=".7"/>
  <path d="m116.2 158.2 17.39-12.2v7.15l-13.94 9.82v15.86l-3.45 0.58v-21.21z" fill="#CDC5DB" stroke="#061A18" stroke-miterlimit="10" stroke-width=".7"/>
  <path d="m105.6 156.7 3.94 2.07v12.09l-3.94-1.68v-12.48z" fill="#819CC9" stroke="#061A18" stroke-miterlimit="10" stroke-width=".7"/>
  <path d="m120 162.9 14.69-9.06 10.13 4.9v13.28l-15.43 9.68-9.39-16.5v-2.3z" fill="#E0DFEA" stroke="#061A18" stroke-miterlimit="10" stroke-width=".7"/>
  <path d="m120 164 9.11 3.55v14.15l-9.11-6.33v-11.37z" fill="#CDC5DB" stroke="#061A18" stroke-miterlimit="10" stroke-width=".7"/>
  <path d="m132 169.9 10.31-4.98v3.75l-9.79 5.42-0.52-4.19z" fill="#819CC9" stroke="#061A18" stroke-miterlimit="10" stroke-width=".7"/>
  <path d="m154.6 157.6v4.79h2.34v-4.79h-2.34z" fill="#89644B" stroke="#061A18" stroke-miterlimit="10" stroke-width=".5"/>
  <path d="m160.2 151.2c0 4.86-2.93 6.46-4.71 6.46-2.53 0-5.97-2.57-5.97-6.46 0-3.4 2.66-15.21 5.13-15.21 3.03 0 5.55 10.41 5.55 15.21z" fill="#559359" stroke="#061A18" stroke-miterlimit="10" stroke-width=".7"/>
  <path d="m136.9 86.84 31.24-14.7 9.78 18.58v14.04l-17.18 10.37-23.63-12.12-0.21-16.17z" fill="#E0D2CC" stroke="#061A18" stroke-miterlimit="10" stroke-width=".7"/>
  <path d="m150.9 81.2 17.23-9.06 9.78 18.58-16.29 10.99-10.72-20.51z" fill="#943A36" stroke="#061A18" stroke-miterlimit="10" stroke-width=".7"/>
  <path d="m157.7 78.33 10 17.72" stroke="#061A18" stroke-miterlimit="10" stroke-width=".7"/>
  <path d="m163 75.56 10.06 17.48" stroke="#061A18" stroke-miterlimit="10" stroke-width=".7"/>
  <path d="m159.6 101.2 18.36-9.99v13.51l-17.18 10.37-1.18-1.01v-12.88z" fill="#D1B7C2" stroke="#061A18" stroke-miterlimit="10" stroke-width=".7"/>
  <path d="m142.3 95.67 10.56 5.57v8.66l-10.56-6.04v-8.19z" fill="#916A56" stroke="#061A18" stroke-miterlimit="10" stroke-width=".7"/>
  <path d="m180.1 113.7 26.68-13.69 3.44-0.26 9.51 10.97v11.6l-22.75 13.13-16.88-10.12v-11.63z" fill="#AF819E" stroke="#061A18" stroke-miterlimit="10" stroke-width=".7"/>
  <path d="m180.1 113.7 16.88 8.62v12.28l-16.88-11.5v-9.4z" fill="#D8CEDA" stroke="#061A18" stroke-miterlimit="10" stroke-width=".7"/>
  <path d="m184.8 122.6 5.1 1.65v7.04l-5.1-3.27v-5.42z" fill="#916A56" stroke="#061A18" stroke-miterlimit="10" stroke-width=".7"/>
  <path d="m186.2 112.6 23.22-12.59 9.65 10.5-21.48 12.59-11.39-10.5z" fill="#AF594A" stroke="#061A18" stroke-miterlimit="10" stroke-width=".7"/>
  <path d="m192.7 109.2 10.72 9.91" stroke="#061A18" stroke-miterlimit="10" stroke-width=".7"/>
  <path d="m198.9 106.2 9.96 9.49" stroke="#061A18" stroke-miterlimit="10" stroke-width=".7"/>
  <path d="m204.9 102.7 9.07 9.6" stroke="#061A18" stroke-miterlimit="10" stroke-width=".7"/>
</svg>