<svg xmlns="http://www.w3.org/2000/svg" width="250" height="250" fill="none" viewBox="0 0 250 250">
<!-- SVG created with Arrow, by QuiverAI (https://quiver.ai) -->
  <path d="m11.67 145c-0.29 9.31 1.54 21.01 12.8 27.15s22.28 5.83 27.65 5.83l3.22 0.17 16.45-8c6.5 0.5 16.73 5.17 22.22 9.5 6.8 5.45 20.37 11.4 33.15 13.5 9.11 1.55 21.66 0.7 29.9-3.4s20.83-16.33 25.56-19.6l0.1 8.36c-6.09 7.59-21.34 21.39-42.51 25.74-16.1 2.6-35.9-5.24-48.2-13.5-4.2-2.45-7.05-3.6-9.3-3.6l-12.05 4.8-18.54-13.97c-8.3 0-21.86-1.78-29.9-8.03-8.05-6.25-10.4-13.6-10.55-24.95z" fill="#B7865E" stroke="#000" stroke-linecap="round" stroke-linejoin="round" stroke-width=".7"/>
  <path d="m237.1 130.1c0.8 9.1 0.3 18-6.5 24.5s-19.54 10.45-23 11.5l-10.9-11 4.4-3c7.7-1.8 21.9-4.3 30-14.3 5.8-7 6-11.55 5.5-15.7l0.5 8z" fill="#91664D" stroke="#000" stroke-linecap="round" stroke-linejoin="round" stroke-width=".7"/>
  <path d="m11.62 143.7c0-17.7 18.4-31.6 31-37.6s24.4-15.4 35.6-22.4c7.2-4.6 19.4-4 26-2.8s24.2 9 34.2 16.2c6.6 4.6 19.8 4.6 27.6 7.6s23.8 9.6 30.4 13.2 18.6-16.6 31.2-10.6c7.2 6 10 13 9.4 20.2s-5 17.2-19.4 22.2c-6.6 1.8-12.6 1.8-21.4 6.8l-14 8.8c-6.6 7.8-15.6 21.2-26.8 25.2s-22.2 4.2-31 2.4-22.2-6.2-27.6-11-14.8-11.2-26.6-11.8-21.8-1.2-27.2-2.4c-10-1.2-31.4-8-31.4-24z" fill="#97C779" stroke="#000" stroke-linecap="round" stroke-linejoin="round" stroke-width=".7"/>
  <path d="m176.9 196.9c-7.7 6.8-18.5 16.8-39.1 16-5.8-0.3-10.8-1.2-13.8-1.8" stroke="#000" stroke-linecap="round" stroke-linejoin="round" stroke-width=".5"/>
  <path d="m170.1 211.4c-4.5 4.8-14.4 6.8-21.2 7.2" stroke="#000" stroke-linecap="round" stroke-linejoin="round" stroke-width=".5"/>
  <path d="m233.2 159.9c6.9-5.4 12.2-13.8 11.9-24.4" stroke="#000" stroke-linecap="round" stroke-linejoin="round" stroke-width=".5"/>
  <path d="m237.8 166.7c-4.5 4.8-9 7.1-14.2 8.5" stroke="#000" stroke-linecap="round" stroke-linejoin="round" stroke-width=".5"/>
  <path d="m229.8 182.4c2.3 2 1.8 4-3.3 6.5" stroke="#000" stroke-linecap="round" stroke-linejoin="round" stroke-width=".5"/>
  <path d="m225.3 189.2-10 6" stroke="#000" stroke-linecap="round" stroke-linejoin="round" stroke-width=".5"/>
  <path d="m202.8 196.4 4.8 2.2" stroke="#000" stroke-linecap="round" stroke-linejoin="round" stroke-width=".5"/>
  <path d="m30.22 180.7c-7.8-2.4-19.2-6.6-22.9-13.4-2.7-5-2.6-10.3-1.8-15.1" stroke="#000" stroke-linecap="round" stroke-linejoin="round" stroke-width=".5"/>
  <path d="m28.82 202.2c-0.9 2 1.8 3.8 4.8 3.8" stroke="#000" stroke-linecap="round" stroke-linejoin="round" stroke-width=".5"/>
  <path d="m46.02 215.2c1.2 2 2.8 2.6 4.8 2.6" stroke="#000" stroke-linecap="round" stroke-linejoin="round" stroke-width=".5"/>
  <path d="m17.62 183.5c3.2 2 5.8 3.2 9.6 3.6" stroke="#000" stroke-linecap="round" stroke-linejoin="round" stroke-width=".5"/>
  <path d="m200.2 156.1-3.6-1-14.4 9.6 28.2 30 1.6 0.4 14.6-10.6-26.4-28.4z" fill="#B1825E" stroke="#000" stroke-linecap="round" stroke-linejoin="round" stroke-width=".7"/>
  <path d="m182.7 165.1 7.4 6 16.3 20.8 3.2 2.8-2.4-0.5-24.5-15.5v-13.6z" fill="#000" opacity=".2"/>
  <path d="m183.2 166.7 0.4 12" stroke="#000" stroke-linecap="round" stroke-linejoin="round" stroke-width=".5"/>
  <path d="m185.6 170.3 0.4 10" stroke="#000" stroke-linecap="round" stroke-linejoin="round" stroke-width=".5"/>
  <path d="m188.4 173.1 0.8 8.8" stroke="#000" stroke-linecap="round" stroke-linejoin="round" stroke-width=".5"/>
  <path d="m191.2 176.3 0.8 7.2" stroke="#000" stroke-linecap="round" stroke-linejoin="round" stroke-width=".5"/>
  <path d="m194.4 179.5v6" stroke="#000" stroke-linecap="round" stroke-linejoin="round" stroke-width=".5"/>
  <path d="m111 99.11c-4.4 3.6-11.6 11.8-8.8 16.6 1.4 2.2 4.4 3.4 6.4 5l-3.2 3.6-13.4 11.4c-1.8 1-6.1 1.4-9.8-0.4l-4.4 2.4c3 3.6 9.4 9 19.8 8.6l7.4-1.2 22.2 29.6c3.8 0 10.3-0.9 15.4-4.6l13-10c1.8 0.8 5.2 0.6 7.4-2.4l19.2 9.4 13.6-12-16.6-10c-3.2-2-5-6.6 0-10.8l5.4-4.6-24.4-12.6-6 2.4c-3.2 1.2-7.6 0.2-10.8-1.8l-15.4-8.8-12.2-2.4 0.2-3.4-5-4z" fill="#000" opacity=".2"/>
  <path d="m108.2 98.71c-3.6 3-9.8 10.2-8 15.2 0.8 2.4 5 4.2 7.4 5.8l-14.6 14c-2.4 2-7.8 2.4-11 0.6l-4.4 2.4c3.2 3.6 8.8 8.8 19.6 8.8l7-1.2 23.4 29.6c3.8 0 9.9-2 14.6-5.6l12.2-9.6c2.2 1.2 5.8 0.6 8-2l19.2 10c-5.4 6-16 19.6-27.8 24-8.8 3.2-19.8 4-29.4 1.6s-21.8-5.6-28.6-10.8l-13.2 5.6-12.6-9.4 1.2-7.6c6.6 0 16.6 4.6 23.4 9.4" stroke="#7DB06A" stroke-linecap="round" stroke-linejoin="round" stroke-width=".7"/>
  <path d="m98.12 97.51c0 7.2-4.2 10.6-6 11.4 1.6 1 4 3.8 1.6 7.2l-4.4 4-8.2-6.4c0-6.4 0.6-23.6 3.6-36s5.6-9.2 7-7c3.4 5 6.4 18 6.4 26.8z" fill="#649953" stroke="#000" stroke-linecap="round" stroke-linejoin="round" stroke-width=".7"/>
  <path d="m83.52 90.71-1.6 2-0.6 8.4 2.2 2.2v-12.6z" fill="#000" opacity=".2"/>
  <path d="m42.62 87.71 23.8-13.6 23.8 28v27.6l-24.2 14-23.4-14v-42z" fill="url(#paint0_linear_408_532)" stroke="#000" stroke-linecap="round" stroke-linejoin="round" stroke-width=".7"/>
  <path d="m42.62 87.71 23.4 28v27.6" stroke="#000" stroke-linecap="round" stroke-linejoin="round" stroke-width=".7"/>
  <path d="m46.02 105.7 4.2 2.4v6l-4.2-2.4v-6z" fill="#5182B0" stroke="#000" stroke-linecap="round" stroke-linejoin="round" stroke-width=".7"/>
  <path d="m45.42 117.9 15.2 8.4v7.4l-15.2-8.8v-7z" fill="#5182B0" stroke="#000" stroke-linecap="round" stroke-linejoin="round" stroke-width=".7"/>
  <path d="m70.82 77.11-4.2-1.8-22.2 12.4 2.4 0.6 24-11.2z" fill="#5182B0" stroke="#000" stroke-linecap="round" stroke-linejoin="round" stroke-width=".7"/>
  <path d="m54.02 82.31 21 27.4" stroke="#000" stroke-linecap="round" stroke-linejoin="round" stroke-width=".7"/>
  <path d="m60.02 78.71 21 27.4" stroke="#000" stroke-linecap="round" stroke-linejoin="round" stroke-width=".7"/>
  <path d="m66.02 115.7 24.2-13.6" stroke="#000" stroke-linecap="round" stroke-linejoin="round" stroke-width=".7"/>
  <path d="m75.42 122.1 11-5.4v2.8l-11 5.6v-3z" fill="#474747" stroke="#000" stroke-linecap="round" stroke-linejoin="round" stroke-width=".7"/>
  <path d="m78.22 122.7 6.8-3.2v16.6l-6.8 3.8v-17.2z" fill="#474747" stroke="#000" stroke-linecap="round" stroke-linejoin="round" stroke-width=".7"/>
  <path d="m71.22 126.3 1.8-1v3.8l-1.8 1v-3.8z" fill="#7F4A4A" stroke="#000" stroke-linecap="round" stroke-linejoin="round" stroke-width=".7"/>
  <path d="m33.82 123.5c-2.8 3.2-3.8 7.6 0.2 9 3 1 6.6-1.2 8.2-2.8l-0.4-9.4c-0.8-1-2.8-2.6-4.8-1-1.2 1-1.4 2.8-1.4 3.8l-1.8 0.4z" fill="#000" opacity=".2"/>
  <path d="m33.82 123.5c-2.8 3.2-3.8 7.6 0.2 9 3 1 6.6-1.2 8.2-2.8v-11c-0.8-1-3.2-2.6-5.2-1-1.2 1-1.4 2.8-1.4 3.8l-1.8 2z" stroke="#000" stroke-linecap="round" stroke-linejoin="round" stroke-width=".7"/>
  <path d="m148 140.7c1.6-1.4 5.4-2.6 7.2 2 1.8-0.6 5-0.8 5.4 2.8 2 0.2 6 1.6 6.4 6.8 0.2 2.6-2.2 4.6-3.6 5.4s-4 1-5.2-0.6c-1.8 1.4-5.6 3-8.6 0.6l-1.6-17z" fill="#000" opacity=".2"/>
  <path d="m150 140.1c1.6-1 4.8-1.6 6.6 2.6 1.6-0.6 4.4-1 5.2 2.6 2 0 5.2 1.4 5.2 7 0 2.2-2.2 4-3.6 4.8s-3.6 1-4.8-0.6c-1.6 1.4-5.2 2.8-8.6 0.8v-17.2z" fill="#568E5A" stroke="#000" stroke-linecap="round" stroke-linejoin="round" stroke-width=".7"/>
  <path d="m101.2 41.71 20.8-11.71 20.6 11.11v35l-21.4 12.2-20 6.8v-53.4z" fill="#E6E6E6" stroke="#000" stroke-linecap="round" stroke-linejoin="round" stroke-width=".7"/>
  <path d="m106 41.71 16-9.6 13.8 9-14.6 9.8-15.2-9.2z" fill="#D9D8D6" stroke="#000" stroke-linecap="round" stroke-linejoin="round" stroke-width=".7"/>
  <path d="m104.6 51.71 3.8 2.2v18.6l-3.4-1.4-0.4-19.4z" fill="#86B3CC" stroke="#000" stroke-linecap="round" stroke-linejoin="round" stroke-width=".7"/>
  <path d="m121.2 51.71 21.4-10.6v35l-21.4 12.2v-36.6z" fill="url(#paint1_linear_408_532)" stroke="#000" stroke-linecap="round" stroke-linejoin="round" stroke-width=".7"/>
  <path d="m105.8 84.51 10.8 4.4v14.6l-10.8-4.6v-14.4z" fill="#6397B7" stroke="#000" stroke-linecap="round" stroke-linejoin="round" stroke-width=".7"/>
  <path d="m111 87.71v12.8" stroke="#000" stroke-linecap="round" stroke-linejoin="round" stroke-width=".7"/>
  <path d="m126.2 73.11 20-11 23.6 12.6v28l-20.2 12.2-23.4-12.2v-29.6z" fill="url(#paint2_linear_408_532)" stroke="#000" stroke-linecap="round" stroke-linejoin="round" stroke-width=".7"/>
  <path d="m126.2 73.11 23.4 12.6v29.2" stroke="#000" stroke-linecap="round" stroke-linejoin="round" stroke-width=".7"/>
  <path d="m130 82.71 15.8 7.4v3.6l-15.8-7.6v-3.4z" fill="#D97873" stroke="#000" stroke-linecap="round" stroke-linejoin="round" stroke-width=".7"/>
  <path d="m131 92.31 13.6 6.4v12.2l-13.6-7.4v-11.2z" fill="#6397B7" stroke="#000" stroke-linecap="round" stroke-linejoin="round" stroke-width=".7"/>
  <path d="m134.6 84.51v4.2" stroke="#000" stroke-linecap="round" stroke-linejoin="round" stroke-width=".7"/>
  <path d="m138.8 86.71v4" stroke="#000" stroke-linecap="round" stroke-linejoin="round" stroke-width=".7"/>
  <path d="m143.6 88.91v4" stroke="#000" stroke-linecap="round" stroke-linejoin="round" stroke-width=".7"/>
  <path d="m156.6 97.11 10.4-5.4v29.2l-10.4-7.8v-16z" fill="#E6E6E6" stroke="#000" stroke-linecap="round" stroke-linejoin="round" stroke-width=".7"/>
  <path d="m167 79.11 22.8-12.4 23 12.2v41.2l-22.2 13-23.6-13v-41z" fill="#E6E6E6" stroke="#000" stroke-linecap="round" stroke-linejoin="round" stroke-width=".7"/>
  <path d="m172.4 79.11 17-10.4 16.8 10-16.4 11-17.4-10.6z" fill="#D9D8D6" stroke="#000" stroke-linecap="round" stroke-linejoin="round" stroke-width=".7"/>
  <path d="m189.8 92.71 23-13.8v41.2l-23 13v-40.4z" fill="url(#paint3_linear_408_532)" stroke="#000" stroke-linecap="round" stroke-linejoin="round" stroke-width=".7"/>
  <path d="m171.8 93.71 13 6v5.2l-13-6.2v-5z" fill="#5182B0" stroke="#000" stroke-linecap="round" stroke-linejoin="round" stroke-width=".7"/>
  <path d="m172.6 111.1 11.2 6v12.2l-11.2-6.4v-11.8z" fill="#5182B0" stroke="#000" stroke-linecap="round" stroke-linejoin="round" stroke-width=".7"/>
  <path d="m203.4 93.71 5.2-3.6v23.4l-5.2 3v-22.8z" fill="#5182B0" stroke="#000" stroke-linecap="round" stroke-linejoin="round" stroke-width=".7"/>
  <path d="m178 114.1v11.8" stroke="#000" stroke-linecap="round" stroke-linejoin="round" stroke-width=".7"/>
  <path d="m176.8 139.9c0.2-3 5.2-6.6 7.8-8.2l8.4 2.2 30.8-12.6-0.6-2.6-10-7.4-0.8 8.4-21.2 12.8-13.2-7.2c-2.2 2.2-6.6 7.8-1.2 14.6z" fill="#000" opacity=".2"/>
  <path d="m99.42 127.7 23.4-12.6 26.8 14v31.6l-22 13.6-28.6-14.2 0.4-32.4z" fill="#F4D56E" stroke="#000" stroke-linecap="round" stroke-linejoin="round" stroke-width=".7"/>
  <path d="m102.2 127.1 20.6-10 23.2 12.4-19.4 11.6-24.4-14z" fill="#F0D7AD" stroke="#000" stroke-linecap="round" stroke-linejoin="round" stroke-width=".7"/>
  <path d="m127 141.7v32.2" stroke="#000" stroke-linecap="round" stroke-linejoin="round" stroke-width=".7"/>
  <path d="m96.62 142.1 3.4-4.4 23 11v7l-26.4-12.2v-1.4z" fill="#5182B0" stroke="#000" stroke-linecap="round" stroke-linejoin="round" stroke-width=".7"/>
  <path d="m119 149.1 2.2 1v4l-2.2-1v-4z" fill="#5182B0" stroke="#000" stroke-linecap="round" stroke-linejoin="round" stroke-width=".7"/>
  <path d="m133.2 150.9 9.4-4.8v18.6l-9.4 6.4v-20.2z" fill="#5182B0" stroke="#000" stroke-linecap="round" stroke-linejoin="round" stroke-width=".7"/>
  <path d="m137.4 150.1v18" stroke="#000" stroke-linecap="round" stroke-linejoin="round" stroke-width=".7"/>
  <path d="m105 152.1 4.6 2.6v10.4l-4.6-2.6v-10.4z" fill="#6397B7" stroke="#000" stroke-linecap="round" stroke-linejoin="round" stroke-width=".7"/>
  <path d="m29.62 188.9 40-18.8 22.4 9.6v8.4l-39.6 19.2-22.8-10.6v-7.8z" fill="#A56E50" stroke="#000" stroke-linecap="round" stroke-linejoin="round" stroke-width=".7"/>
  <path d="m29.62 195.9 20.4 10.4" stroke="#000" stroke-linecap="round" stroke-linejoin="round" stroke-width=".7"/>
  <path d="m34.42 192.1 14.8 8" stroke="#000" stroke-linecap="round" stroke-linejoin="round" stroke-width=".7"/>
  <path d="m43.42 187.1 16.2 8.6" stroke="#000" stroke-linecap="round" stroke-linejoin="round" stroke-width=".7"/>
  <path d="m52.42 182.5 15.4 9" stroke="#000" stroke-linecap="round" stroke-linejoin="round" stroke-width=".7"/>
  <path d="m59.62 178.3 16.8 8.8" stroke="#000" stroke-linecap="round" stroke-linejoin="round" stroke-width=".7"/>
  <path d="m67.02 174.3 12.6 8.4" stroke="#000" stroke-linecap="round" stroke-linejoin="round" stroke-width=".7"/>
  <path d="m70.82 172.1 18.8 9" stroke="#000" stroke-linecap="round" stroke-linejoin="round" stroke-width=".7"/>
  <path d="m29.82 188.9 1-1.2 1.2 0.6v15.6l-1.6 0.6-1.2-0.8 0.6-14.8z" fill="#845939" stroke="#000" stroke-linecap="round" stroke-linejoin="round" stroke-width=".7"/>
  <path d="m49.62 198.9 1.2-1.2 1.8 0.8v15.6l-1.6 1.2-1.8-1 0.4-15.4z" fill="#845939" stroke="#000" stroke-linecap="round" stroke-linejoin="round" stroke-width=".7"/>
  <path d="m70.02 189.3 1.2-1.2 1.6 0.8v13.8l-1.8 0.8-1.4-0.8 0.4-13.4z" fill="#845939" stroke="#000" stroke-linecap="round" stroke-linejoin="round" stroke-width=".7"/>
  <path d="m50.62 176.7 1-1.2 1.8 0.6 0.4 3.4-1.8 1.2-1.8-1 0.4-3z" fill="#845939" stroke="#000" stroke-linecap="round" stroke-linejoin="round" stroke-width=".7"/>
  <defs>
    <linearGradient id="paint0_linear_408_532" x1="42.62" x2="90.22" y1="108.9" y2="108.9" gradientUnits="userSpaceOnUse">
      <stop stop-color="#CB6256" offset="0"/>
      <stop stop-color="#B35959" offset="1"/>
    </linearGradient>
    <linearGradient id="paint1_linear_408_532" x1="126.2" x2="139.8" y1="48.91" y2="67.71" gradientUnits="userSpaceOnUse">
      <stop stop-color="#97C7E0" offset="0"/>
      <stop stop-color="#78A1BC" offset="1"/>
    </linearGradient>
    <linearGradient id="paint2_linear_408_532" x1="126.2" x2="169.8" y1="88.51" y2="88.51" gradientUnits="userSpaceOnUse">
      <stop stop-color="#D9615B" offset="0"/>
      <stop stop-color="#994949" offset="1"/>
    </linearGradient>
    <linearGradient id="paint3_linear_408_532" x1="191.8" x2="210" y1="97.71" y2="102.1" gradientUnits="userSpaceOnUse">
      <stop stop-color="#C3D9E4" offset="0"/>
      <stop stop-color="#80A9C1" offset="1"/>
    </linearGradient>
  </defs>
</svg>